<svg id="SvgjsSvg1014" xmlns="http://www.w3.org/2000/svg" version="1.1" xmlns:xlink="http://www.w3.org/1999/xlink" xmlns:svgjs="http://svgjs.com/svgjs" width="25" height="27"><defs id="SvgjsDefs1015"></defs><path id="SvgjsPath1016" d="M1144.92 84.1139C1144.88 83.7553 1144.66 83.4435 1144.3300000000002 83.2895L1142.64 82.4884C1141.88 82.1297 1141.51 81.2531 1141.8000000000002 80.4623L1142.4300000000003 78.6989C1142.5500000000002 78.3591 1142.4900000000002 77.9794 1142.2600000000002 77.69739999999999C1141.6800000000003 76.97379999999998 1141.0300000000002 76.31609999999999 1140.3000000000002 75.73709999999998C1140.0200000000002 75.51139999999998 1139.64 75.44929999999998 1139.3000000000002 75.57109999999999L1137.5400000000002 76.20329999999998C1136.7500000000002 76.48689999999999 1135.8700000000001 76.12369999999999 1135.5100000000002 75.36409999999998L1134.7100000000003 73.66749999999998C1134.5600000000002 73.34129999999998 1134.2400000000002 73.11669999999998 1133.8900000000003 73.07679999999998C1133.4300000000003 73.02619999999997 1132.9700000000003 72.99969999999998 1132.5000000000002 72.99969999999998C1132.0300000000002 72.99969999999998 1131.5700000000002 73.02619999999997 1131.1100000000001 73.07679999999998C1130.7500000000002 73.11669999999998 1130.44 73.34129999999998 1130.2900000000002 73.66749999999998L1129.4900000000002 75.36409999999998C1129.1300000000003 76.12369999999999 1128.2500000000002 76.48689999999998 1127.4600000000003 76.20329999999998L1125.7000000000003 75.57109999999999C1125.3600000000004 75.4493 1124.9800000000002 75.51139999999998 1124.7000000000003 75.73709999999998C1123.9700000000003 76.31609999999998 1123.3200000000002 76.97379999999998 1122.7400000000002 77.69739999999999C1122.5100000000002 77.97939999999998 1122.4500000000003 78.35909999999998 1122.5700000000002 78.69899999999998L1123.2000000000003 80.46229999999998C1123.4900000000002 81.25309999999999 1123.1200000000003 82.12969999999999 1122.3600000000004 82.48839999999998L1120.6700000000003 83.28949999999999C1120.3400000000004 83.44349999999999 1120.1200000000003 83.75529999999999 1120.0800000000004 84.11389999999999C1120.0300000000004 84.56899999999999 1120.0000000000005 85.03129999999999 1120.0000000000005 85.49999999999999C1120.0000000000005 85.96859999999998 1120.0300000000004 86.43089999999998 1120.0800000000004 86.88599999999998C1120.1200000000003 87.24459999999998 1120.3400000000004 87.55639999999998 1120.6700000000003 87.71039999999998L1122.3600000000004 88.51149999999998C1123.1200000000003 88.87019999999998 1123.4900000000005 89.74689999999998 1123.2000000000003 90.53759999999998L1122.5700000000002 92.30089999999998C1122.4500000000003 92.64079999999998 1122.5100000000002 93.02049999999998 1122.7400000000002 93.30249999999998C1123.3200000000002 94.02609999999999 1123.9700000000003 94.68379999999998 1124.7000000000003 95.26279999999998C1124.9800000000002 95.48839999999998 1125.3600000000004 95.55069999999998 1125.7000000000003 95.42879999999998L1127.4600000000003 94.79649999999998C1128.2500000000002 94.51299999999998 1129.1300000000003 94.87619999999998 1129.4900000000002 95.63579999999997L1130.2900000000002 97.33239999999998C1130.4400000000003 97.65869999999998 1130.7500000000002 97.88319999999997 1131.1100000000001 97.92309999999998C1131.5700000000002 97.97369999999998 1132.0300000000002 98.00029999999998 1132.5000000000002 98.00029999999998C1132.9700000000003 98.00029999999998 1133.4300000000003 97.97369999999998 1133.8900000000003 97.92309999999998C1134.2400000000002 97.88319999999997 1134.5600000000004 97.65869999999998 1134.7100000000003 97.33239999999998L1135.5100000000002 95.63579999999997C1135.8700000000001 94.87619999999997 1136.7500000000002 94.51299999999998 1137.5400000000002 94.79649999999998L1139.3000000000002 95.42879999999998C1139.64 95.55069999999998 1140.0200000000002 95.48839999999998 1140.3000000000002 95.26279999999998C1141.0300000000002 94.68379999999999 1141.6800000000003 94.02609999999999 1142.2600000000002 93.30249999999998C1142.4900000000002 93.02049999999998 1142.5500000000002 92.64089999999999 1142.4300000000003 92.30099999999999L1141.8000000000002 90.53759999999998C1141.5100000000002 89.74689999999998 1141.88 88.87019999999998 1142.64 88.51149999999998L1144.3300000000002 87.71039999999998C1144.66 87.55639999999998 1144.88 87.24459999999998 1144.92 86.88599999999998C1144.97 86.43089999999998 1145 85.96859999999998 1145 85.49999999999999C1145 85.03129999999999 1144.97 84.56899999999999 1144.92 84.11389999999999ZM1132.5 88.8325C1130.63 88.8325 1129.11 87.3168 1129.11 85.447C1129.11 83.57730000000001 1130.6299999999999 82.0616 1132.5 82.0616C1134.37 82.0616 1135.88 83.5773 1135.88 85.447C1135.88 87.3168 1134.3700000000001 88.8325 1132.5 88.8325Z " fill="#ffffff" transform="matrix(1,0,0,1,-1120,-72)"></path></svg>