<svg id="SvgjsSvg1008" xmlns="http://www.w3.org/2000/svg" version="1.1" xmlns:xlink="http://www.w3.org/1999/xlink" xmlns:svgjs="http://svgjs.com/svgjs" width="132" height="113"><defs id="SvgjsDefs1009"></defs><path id="SvgjsPath1010" d="M850.513 532.145C858.639 532.145 866.768 532.145 874.894 532.145C877.373 532.145 882.208 531.502 883.364 532.9309999999999C884.3140000000001 534.1049999999999 883.918 537.2669999999999 883.918 539.3019999999999C883.918 544.7289999999999 883.918 550.1569999999999 883.918 555.5829999999999C883.918 576.7909999999998 883.918 598.0049999999999 883.918 619.2119999999999C883.918 625.2149999999999 883.918 631.2199999999999 883.918 637.2229999999998C883.918 639.4869999999999 884.345 642.8019999999998 883.127 643.9089999999999C882.0269999999999 644.9079999999999 878.5569999999999 644.4589999999998 876.5559999999999 644.4589999999998C870.699 644.4589999999998 864.8399999999999 644.4589999999998 858.983 644.4589999999998C835.659 644.4589999999998 812.329 644.4589999999998 789.005 644.4589999999998C782.515 644.4589999999998 776.022 644.4589999999998 769.532 644.4589999999998C767.2030000000001 644.4589999999998 763.538 644.9329999999999 762.407 643.6729999999999C761.4580000000001 642.6139999999999 761.933 636.2959999999999 761.933 634.1559999999998C761.933 625.2429999999998 761.933 616.3269999999999 761.933 607.4139999999999C762.17 606.9159999999998 762.407 606.4179999999999 762.645 605.9199999999998C760.785 603.4939999999998 758.831 601.6119999999999 757.895 598.1329999999998C755.958 590.9359999999998 760.7379999999999 584.2699999999998 764.703 582.0099999999998C764.677 581.9579999999997 764.65 581.9049999999997 764.624 581.8529999999997C762.092 581.8669999999997 756.743 575.4379999999998 755.046 573.7519999999997C754.44 573.1489999999998 752.446 571.9979999999997 753.1460000000001 570.2909999999997C753.498 569.4319999999997 754.5690000000001 568.7189999999997 755.2040000000001 568.0889999999997C757.1300000000001 566.2009999999997 759.057 564.3129999999998 760.9830000000001 562.4259999999997C761.8000000000001 561.6139999999997 762.4480000000001 560.3669999999997 763.8320000000001 560.1449999999998C765.4230000000001 559.8889999999998 766.1910000000001 561.3459999999998 766.9200000000001 562.0329999999998C769.0830000000001 564.1819999999998 771.2470000000001 566.3319999999998 773.4110000000001 568.4819999999997C774.0970000000001 569.1889999999997 775.4590000000001 569.9269999999998 774.994 571.7069999999998C774.702 572.8239999999997 773.1940000000001 573.6889999999997 772.461 574.4589999999997C770.192 576.7399999999997 767.922 579.0209999999997 765.653 581.3019999999997C767.1990000000001 580.8239999999997 768.621 580.1599999999996 770.323 579.8079999999997C773.766 579.0949999999997 778.874 579.6499999999996 782.672 579.6499999999996C785.918 579.6239999999997 789.164 579.5979999999996 792.409 579.5719999999997C792.384 577.2309999999997 791.962 568.9959999999996 792.726 567.6949999999997C793.715 566.0109999999997 802.182 566.6729999999997 805.154 566.6729999999997C806.705 566.6729999999997 808.262 566.5469999999997 809.112 567.2229999999996C810.881 568.6309999999996 809.185 576.8099999999996 809.904 579.6499999999996C813.149 579.6499999999996 816.395 579.6499999999996 819.64 579.6499999999996C820.462 579.6509999999996 822.52 579.9189999999996 822.886 579.4139999999996C823.77 577.0689999999996 822.009 569.0799999999997 823.2819999999999 567.5379999999997C824.078 566.5719999999997 825.6039999999999 566.6729999999997 827.3979999999999 566.6729999999997C830.5809999999999 566.6729999999997 839.2669999999999 565.9169999999997 840.1429999999999 567.9309999999997C840.444 568.6259999999997 840.3009999999999 569.8329999999997 840.3009999999999 570.7629999999997C840.3269999999999 573.6989999999997 840.3539999999999 576.6359999999997 840.3799999999999 579.5719999999997C843.6249999999999 579.5979999999996 846.8719999999998 579.6239999999997 850.1169999999998 579.6499999999996C850.9239999999999 579.6499999999996 852.8049999999998 579.9109999999996 853.2829999999999 579.4929999999996C853.2829999999999 573.7779999999996 853.2829999999999 568.0619999999996 853.2829999999999 562.3469999999996C852.3069999999999 562.3209999999997 851.3309999999999 562.2949999999996 850.3539999999999 562.2679999999997C847.7909999999999 561.2259999999997 849.7779999999999 553.9789999999997 849.0089999999999 550.9429999999996C848.877 551.0469999999997 848.7449999999999 551.1519999999996 848.6129999999999 551.2569999999996C846.486 555.8339999999996 838.842 560.2549999999997 833.3349999999999 561.7179999999996C831.0849999999999 562.3159999999996 825.819 563.1969999999997 825.102 560.8529999999996C824.055 557.4259999999996 828.983 558.2219999999996 831.1179999999999 557.7849999999996C837.2399999999999 556.5339999999997 842.1469999999999 553.2849999999996 845.1299999999999 548.8979999999997C846.6249999999999 546.6979999999996 847.8959999999998 544.0369999999997 848.6129999999998 541.1109999999996C848.7709999999998 539.5119999999996 848.9289999999999 537.9129999999997 849.0879999999999 536.3129999999996C849.0879999999999 535.4219999999997 849.0879999999999 534.5309999999996 849.0879999999999 533.6389999999997C849.3209999999998 532.8549999999997 850.1219999999998 532.7239999999997 850.5129999999998 532.1449999999996ZM766.445 609.853C765.7810000000001 611.3209999999999 766.2860000000001 616.0519999999999 766.2860000000001 618.0319999999999C766.3130000000001 625.372 766.339 632.7149999999999 766.3660000000001 640.055C793.9370000000001 640.029 821.5160000000001 640.002 849.0880000000001 639.976C849.0880000000001 632.426 849.0880000000001 624.874 849.0880000000001 617.324C849.0880000000001 616.185 849.2780000000001 610.2379999999999 848.85 609.9309999999999C821.384 609.905 793.9100000000001 609.8789999999999 766.445 609.853ZM853.362 549.448C853.389 552.332 853.415 555.216 853.442 558.1C855.332 558.073 856.741 558.027 857.479 559.1220000000001C858.1700000000001 560.1490000000001 857.716 563.201 857.716 564.7070000000001C857.716 569.0060000000001 857.716 573.3060000000002 857.716 577.6050000000001C857.716 579.1420000000002 858.091 581.7720000000002 857.479 582.8750000000001C856.702 584.2750000000001 855.158 583.6130000000002 853.3620000000001 584.0550000000001C853.3620000000001 599.836 853.3620000000001 615.6220000000001 853.3620000000001 631.403C859.4570000000001 631.403 865.5540000000001 631.403 871.6480000000001 631.403C873.8350000000002 631.0790000000001 877.7710000000002 632.082 879.4850000000001 631.3240000000001C879.4590000000002 604.0350000000001 879.4320000000001 576.738 879.4060000000002 549.4480000000001C870.7260000000002 549.4480000000001 862.0430000000001 549.4480000000001 853.3620000000002 549.4480000000001ZM771.353 583.976C770.4029999999999 584.2379999999999 769.453 584.501 768.5029999999999 584.763C766.5899999999999 585.5020000000001 764.7589999999999 587.177 763.674 588.774C759.403 595.062 763.357 602.768 768.899 604.897C772.509 606.2850000000001 781.631 605.527 786.551 605.527C799.427 605.527 812.306 605.527 825.181 605.527C831.065 605.527 836.95 605.527 842.8340000000001 605.527C843.907 605.527 848.528 605.7850000000001 849.009 605.369C849.009 598.239 849.009 591.107 849.009 583.976C823.126 583.976 797.235 583.976 771.3530000000001 583.976ZM853.442 536.471C853.442 539.354 853.442 542.239 853.442 545.122C862.096 545.122 870.752 545.122 879.406 545.122C879.406 542.2389999999999 879.406 539.3539999999999 879.406 536.471C870.752 536.471 862.096 536.471 853.442 536.471ZM865.316 555.898C874.965 555.6990000000001 875.317 567.4060000000001 867.453 568.875C862.716 569.76 858.649 564.896 860.091 560.381C860.967 557.639 862.838 557.103 865.316 555.898ZM792.805 588.223C801.608 588.0329999999999 802.1869999999999 599.56 794.626 601.2009999999999C789.818 602.2439999999999 785.4979999999999 597.2989999999999 787.105 592.7069999999999C787.736 590.9059999999998 789.143 589.4549999999999 790.826 588.6949999999999C791.486 588.5379999999999 792.145 588.381 792.8050000000001 588.223ZM814.891 588.223C823.694 588.0329999999999 824.2719999999999 599.56 816.711 601.2009999999999C811.904 602.2439999999999 807.5840000000001 597.2989999999999 809.191 592.7069999999999C809.821 590.9059999999998 811.229 589.4549999999999 812.912 588.6949999999999C813.571 588.5379999999999 814.231 588.381 814.8910000000001 588.223ZM772.223 588.223C781.026 588.0329999999999 781.6049999999999 599.56 774.044 601.2009999999999C769.237 602.2439999999999 764.9159999999999 597.2989999999999 766.524 592.7069999999999C767.154 590.9059999999998 768.562 589.4549999999999 770.244 588.6949999999999C770.904 588.5379999999999 771.5640000000001 588.381 772.2230000000001 588.223ZM837.451 588.223C846.254 588.0329999999999 846.833 599.56 839.272 601.2009999999999C834.465 602.2439999999999 830.144 597.2989999999999 831.7520000000001 592.7069999999999C832.3820000000001 590.9059999999998 833.7900000000001 589.4549999999999 835.4720000000001 588.6949999999999C836.1320000000001 588.5379999999999 836.7920000000001 588.381 837.4510000000001 588.223ZM764.07 565.572C762.2760000000001 567.381 760.481 569.19 758.687 570.999C760.455 572.7810000000001 762.223 574.5640000000001 763.991 576.347C764.096 576.347 764.202 576.347 764.307 576.347C766.049 574.564 767.791 572.781 769.532 570.999C768.849 569.84 765.231 566.327 764.07 565.572ZM853.362 635.808C853.389 637.223 853.415 638.639 853.442 640.055C862.122 640.029 870.8050000000001 640.002 879.485 639.976C879.4590000000001 638.587 879.432 637.197 879.4060000000001 635.808C870.7260000000001 635.808 862.0430000000001 635.808 853.3620000000001 635.808ZM859.299 618.426C862.7819999999999 618.426 866.266 618.426 869.749 618.426C871.201 618.4250000000001 873.291 618.177 874.261 618.74C874.7529999999999 619.026 875.403 620.098 875.211 621.021C874.607 623.913 866.92 622.833 863.416 622.8299999999999C861.899 622.829 859.7370000000001 623.2189999999999 858.745 622.5939999999999C856.626 621.2589999999999 857.949 619.4209999999999 859.299 618.4259999999999ZM859.774 609.774C863.178 609.774 866.582 609.774 869.986 609.774C871.35 609.774 873.388 609.523 874.261 610.089C875.2099999999999 610.7030000000001 875.168 611.855 875.052 613.1560000000001C874.63 613.4970000000001 874.208 613.8380000000001 873.7860000000001 614.1780000000001C870.3030000000001 614.2050000000002 866.8190000000001 614.2310000000001 863.3370000000001 614.2570000000001C861.9120000000001 614.2310000000001 860.4870000000001 614.205 859.0620000000001 614.1780000000001C857.5750000000002 613.6110000000001 857.1870000000001 611.113 858.5870000000001 610.1670000000001C858.9830000000001 610.0360000000002 859.3790000000001 609.9050000000002 859.7740000000001 609.7740000000001ZM860.17 601.122C864.1279999999999 601.1479999999999 868.087 601.175 872.044 601.2009999999999C873.7959999999999 601.4669999999999 875.731 601.4949999999999 875.211 603.7959999999999C875.044 604.531 874.452 605.295 873.7860000000001 605.5269999999999C870.224 605.5529999999999 866.6610000000001 605.579 863.099 605.6049999999999C861.754 605.579 860.407 605.5529999999999 859.062 605.5269999999999C858.5020000000001 605.3109999999999 858.0360000000001 604.665 857.716 604.1899999999999C857.605 601.8679999999999 858.341 601.766 860.17 601.122ZM797.08 570.92C796.974 570.972 796.868 571.025 796.763 571.077C796.763 573.856 796.763 576.636 796.763 579.414C796.816 579.4929999999999 796.868 579.572 796.921 579.65C799.7180000000001 579.624 802.5160000000001 579.598 805.312 579.572C805.391 579.519 805.471 579.467 805.5500000000001 579.414C805.5640000000001 578.095 805.7030000000001 571.3389999999999 805.2330000000001 570.999C802.5160000000001 570.9730000000001 799.797 570.946 797.08 570.9200000000001ZM835.631 570.92C832.834 570.972 830.036 571.025 827.24 571.077C827.266 573.935 827.292 576.793 827.319 579.65C830.1949999999999 579.624 833.0709999999999 579.598 835.947 579.572C835.971 578.229 836.146 571.245 835.631 570.92ZM772.461 592.628C771.883 592.9100000000001 771.275 593.123 770.957 593.6500000000001C770.072 595.1140000000001 771.385 597.205 773.0939999999999 596.8750000000001C775.6569999999999 596.3800000000001 775.4739999999999 592.5120000000001 772.4609999999999 592.6280000000002ZM815.128 592.628C814.5500000000001 592.9100000000001 813.9430000000001 593.123 813.624 593.6500000000001C812.739 595.1140000000001 814.053 597.205 815.761 596.8750000000001C818.324 596.3800000000001 818.141 592.5120000000001 815.1279999999999 592.6280000000002ZM793.042 592.628C792.464 592.9100000000001 791.8570000000001 593.123 791.538 593.6500000000001C790.654 595.1140000000001 791.967 597.205 793.676 596.8750000000001C796.238 596.3800000000001 796.0550000000001 592.5120000000001 793.042 592.6280000000002ZM865.87 560.302C865.319 560.6610000000001 864.696 560.9150000000001 864.445 561.561C863.8710000000001 563.032 865.101 564.914 866.899 564.471C869.357 563.865 868.977 560.141 865.87 560.302ZM837.689 592.628C837.111 592.9100000000001 836.5029999999999 593.123 836.185 593.6500000000001C835.3 595.1140000000001 836.6129999999999 597.205 838.3219999999999 596.8750000000001C840.8839999999999 596.3800000000001 840.7019999999999 592.5120000000001 837.6889999999999 592.6280000000002Z " fill="#ffffff" transform="matrix(1,0,0,1,-752,-532)"></path></svg>