<svg id="SvgjsSvg1026" xmlns="http://www.w3.org/2000/svg" version="1.1" xmlns:xlink="http://www.w3.org/1999/xlink" xmlns:svgjs="http://svgjs.com/svgjs" width="113" height="112"><defs id="SvgjsDefs1027"></defs><path id="SvgjsPath1028" d="M1358.02 814.302C1369.84 814.302 1381.66 814.302 1393.48 814.302C1403.67 814.302 1410.39 813.475 1413.59 820.673C1414.59 822.921 1414.3 826.593 1414.3 829.797C1414.33 838.369 1414.35 846.943 1414.3799999999999 855.5160000000001C1418.1899999999998 855.4920000000001 1422.3 855.142 1424.51 856.8530000000001C1425.31 857.469 1426.1299999999999 858.6640000000001 1426.49 859.6840000000001C1427.1 861.4060000000001 1426.73 864.325 1426.73 866.4480000000001C1426.73 871.1930000000001 1426.73 875.9390000000001 1426.73 880.6840000000001C1426.73 883.7510000000001 1426.73 886.8190000000001 1426.73 889.8860000000001C1426.73 891.258 1426.56 892.9470000000001 1426.97 893.9760000000001C1427.6200000000001 895.6400000000001 1429.8500000000001 897.2920000000001 1432.27 896.4140000000001C1436.27 894.9650000000001 1434.96 886.6480000000001 1434.96 881.3130000000001C1434.96 873.6320000000001 1434.96 865.9490000000001 1434.96 858.2680000000001C1432.32 855.0180000000001 1429.68 851.7660000000002 1427.05 848.5160000000002C1426.1599999999999 847.1910000000001 1427.07 845.4580000000002 1428.31 845.2120000000002C1430.47 844.7870000000003 1433.35 849.6190000000003 1434.33 850.8750000000002C1435.46 852.3270000000002 1438.53 855.2500000000002 1439.08 856.8530000000002C1439.3799999999999 857.7510000000002 1439.24 859.1760000000002 1439.24 860.3130000000002C1439.24 862.9090000000002 1439.24 865.5050000000002 1439.24 868.1000000000003C1439.24 874.0240000000002 1439.24 879.9510000000002 1439.24 885.8750000000002C1439.24 888.6520000000003 1439.68 892.2260000000002 1439 894.6050000000002C1438.3 897.0510000000003 1436.54 899.1660000000003 1434.33 900.1110000000002C1431.21 901.4420000000002 1427.78 900.5070000000002 1425.6999999999998 898.9310000000003C1424.4299999999998 897.9690000000003 1423.3999999999999 896.6580000000002 1422.85 894.9990000000003C1422.1499999999999 892.8660000000002 1422.53 889.4520000000002 1422.53 886.8190000000003C1422.53 881.3140000000003 1422.53 875.8070000000002 1422.53 870.3020000000002C1422.53 868.0830000000002 1423.06 861.6260000000002 1422.1399999999999 860.3920000000003C1421.5099999999998 859.5420000000003 1415.9499999999998 859.3250000000003 1414.3 859.7630000000003C1414.33 880.2630000000003 1414.35 900.7680000000003 1414.3799999999999 921.2680000000003C1419.87 921.2680000000003 1425.36 921.2680000000003 1430.85 921.2680000000003C1433.26 921.2680000000003 1436.4599999999998 921.8380000000003 1434.7199999999998 924.5720000000002C1433.9199999999998 925.8410000000002 1431.3999999999999 925.5160000000002 1429.3399999999997 925.5150000000002C1424.3499999999997 925.5150000000002 1419.3699999999997 925.5150000000002 1414.3799999999997 925.5150000000002C1393.3999999999996 925.5150000000002 1372.4199999999996 925.5150000000002 1351.4499999999996 925.5150000000002C1345.4599999999996 925.5150000000002 1339.4699999999996 925.5150000000002 1333.4799999999996 925.5150000000002C1330.1899999999996 925.5160000000002 1327.1199999999997 926.1780000000002 1327.1499999999996 922.7630000000003C1327.5399999999997 922.3170000000002 1327.9399999999996 921.8710000000002 1328.3299999999997 921.4260000000003C1329.4899999999998 921.3730000000003 1330.6599999999996 921.3210000000003 1331.8199999999997 921.2680000000003C1335.1899999999996 921.2680000000003 1338.5699999999997 921.2680000000003 1341.9499999999998 921.2680000000003C1343.9299999999998 921.2680000000003 1345.9099999999999 921.2680000000003 1347.8899999999999 921.2680000000003C1347.8899999999999 913.1680000000002 1347.8899999999999 905.0650000000003 1347.8899999999999 896.9650000000003C1347.8899999999999 878.8770000000003 1347.8899999999999 860.7830000000002 1347.8899999999999 842.6950000000003C1347.8899999999999 836.2050000000003 1346.8799999999999 823.8080000000002 1349.1499999999999 819.6510000000003C1350.35 817.4550000000003 1352.55 815.6300000000003 1355.09 814.7740000000003C1356.07 814.6170000000003 1357.04 814.4600000000004 1358.02 814.3020000000004ZM1357.54 818.549C1355.3799999999999 819.441 1353.81 819.802 1352.79 821.774C1352.03 823.264 1352.17 825.23 1352.1599999999999 827.358C1352.1599999999999 831.972 1352.1599999999999 836.587 1352.1599999999999 841.2009999999999C1352.1599999999999 865.161 1352.1599999999999 889.1279999999999 1352.1599999999999 913.088C1371.4699999999998 913.062 1390.79 913.036 1410.11 913.01C1410.11 889.889 1410.11 866.76 1410.11 843.639C1410.11 838.894 1410.11 834.148 1410.11 829.403C1410.11 827.398 1410.4099999999999 824.847 1409.9499999999998 823.111C1409.6299999999999 821.91 1408.7799999999997 820.555 1407.8899999999999 819.886C1405.07 817.764 1398.2399999999998 818.549 1393.3999999999999 818.549C1381.4499999999998 818.549 1369.4999999999998 818.549 1357.54 818.549ZM1357.94 822.561C1369.44 822.561 1380.95 822.561 1392.45 822.561C1394.8500000000001 822.561 1404.06 822.135 1405.2 822.9540000000001C1406.3500000000001 823.7810000000001 1405.99 826.446 1405.99 828.3810000000001C1405.99 833.388 1405.99 838.3960000000001 1405.99 843.4030000000001C1405.99 847.1000000000001 1405.99 850.7970000000001 1405.99 854.4930000000002C1405.99 855.9360000000001 1406.24 858.0540000000002 1405.59 858.8980000000001C1404.56 860.2400000000001 1397.27 859.6840000000001 1394.6699999999998 859.6840000000001C1385.5399999999997 859.6840000000001 1376.4099999999999 859.6840000000001 1367.2799999999997 859.6840000000001C1364.9899999999998 859.6840000000001 1358.3599999999997 860.2160000000001 1357.0699999999997 859.291C1355.8999999999996 858.4490000000001 1356.1999999999998 856.089 1356.1999999999998 854.1C1356.1999999999998 849.486 1356.1999999999998 844.871 1356.1999999999998 840.2570000000001C1356.2199999999998 834.831 1356.2499999999998 829.403 1356.2799999999997 823.9760000000001C1356.5399999999997 823.1630000000001 1357.2499999999998 822.9720000000001 1357.9399999999998 822.5610000000001ZM1360.47 826.729C1360.47 836.3240000000001 1360.47 845.921 1360.47 855.5160000000001C1364.56 855.5160000000001 1368.65 855.5160000000001 1372.74 855.5160000000001C1373.9 855.5160000000001 1376.55 855.9100000000001 1377.33 855.3580000000001C1374.35 850.456 1371.37 845.5530000000001 1368.3899999999999 840.6510000000001C1367.6 839.3720000000001 1365.32 836.3990000000001 1367.6 835.1450000000001C1370.2099999999998 833.7030000000001 1371.6399999999999 837.9050000000001 1372.4299999999998 839.2350000000001C1375.7199999999998 844.6610000000002 1379.0199999999998 850.0890000000002 1382.32 855.5160000000001C1388.81 855.489 1395.3 855.4630000000001 1401.79 855.4370000000001C1401.79 848.3590000000002 1401.79 841.2790000000001 1401.79 834.2010000000001C1401.79 832.9900000000001 1402.09 827.3330000000001 1401.6399999999999 826.8080000000001C1387.9199999999998 826.7820000000002 1374.1899999999998 826.7550000000001 1360.4699999999998 826.7290000000002ZM1380.5 867.943C1381.29 867.942 1382.02 867.928 1382.48 868.257C1382.9 868.939 1383.32 869.621 1383.75 870.3019999999999C1384.93 871.7699999999999 1386.12 873.2389999999999 1387.31 874.7069999999999C1390.21 878.3229999999999 1393.6599999999999 881.5419999999999 1395.1399999999999 886.5829999999999C1397.59 894.8989999999999 1392.3999999999999 901.4029999999999 1386.9899999999998 903.8079999999999C1385.5699999999997 904.4399999999998 1383.9099999999999 904.6229999999999 1382.1599999999999 904.9089999999999C1373.4799999999998 906.3339999999998 1364.8 897.0119999999998 1366.7299999999998 888.1559999999998C1368.1899999999998 881.4269999999998 1372.5099999999998 877.9289999999999 1376.0699999999997 873.3699999999999C1377.3999999999996 871.6659999999999 1378.6199999999997 869.0909999999999 1380.4999999999998 867.9429999999999ZM1380.97 873.92C1380.33 875.074 1379.24 875.908 1378.44 876.909C1375.9 880.0699999999999 1372.68 883.033 1371.3200000000002 887.2909999999999C1369.14 894.087 1374.7300000000002 901.9269999999999 1381.8500000000001 900.7399999999999C1388.0200000000002 899.7099999999999 1393.6200000000001 894.608 1390.7900000000002 886.9759999999999C1389.4900000000002 883.4649999999999 1387.0600000000002 881.0639999999999 1384.9300000000003 878.4029999999999C1384.2300000000002 877.5269999999999 1381.8900000000003 874.2139999999999 1380.9700000000003 873.92ZM1352.16 917.257C1352.16 918.5939999999999 1352.16 919.9309999999999 1352.16 921.2679999999999C1371.47 921.242 1390.7900000000002 921.2159999999999 1410.1100000000001 921.1899999999999C1410.0800000000002 919.8789999999999 1410.0500000000002 918.568 1410.0300000000002 917.257C1390.7400000000002 917.257 1371.4500000000003 917.257 1352.1600000000003 917.257Z " fill="#ffffff" transform="matrix(1,0,0,1,-1327,-814)"></path></svg>