<svg id="SvgjsSvg1020" xmlns="http://www.w3.org/2000/svg" version="1.1" xmlns:xlink="http://www.w3.org/1999/xlink" xmlns:svgjs="http://svgjs.com/svgjs" width="119" height="114"><defs id="SvgjsDefs1021"></defs><path id="SvgjsPath1022" d="M850.689 813.302C853.885 813.297 856.3149999999999 814.298 857.7339999999999 816.0550000000001C860.3749999999999 819.326 862.1449999999999 824.8510000000001 863.9879999999999 828.8750000000001C865.9399999999999 833.0700000000002 867.8929999999999 837.2650000000001 869.8449999999999 841.4590000000001C870.838 843.6300000000001 872.1259999999999 845.5400000000001 872.6159999999999 848.2230000000001C873.2279999999998 851.5730000000001 871.2419999999998 854.033 869.7659999999998 855.4590000000001C869.3439999999998 855.8000000000001 868.9219999999998 856.1410000000001 868.4999999999999 856.4820000000001C868.4999999999999 878.292 868.4999999999999 900.109 868.4999999999999 921.9200000000001C871.9819999999999 921.9200000000001 875.4659999999999 921.9200000000001 878.9489999999998 921.9200000000001C880.2329999999998 921.9200000000001 882.3469999999999 921.6390000000001 883.2239999999998 922.1560000000001C883.7169999999999 922.4470000000001 884.3779999999998 923.421 884.0939999999998 924.437C883.5199999999999 926.491 880.0399999999998 925.932 877.4449999999998 925.931C870.7699999999999 925.931 864.0919999999999 925.931 857.4169999999998 925.931C834.2789999999998 925.931 811.1329999999998 925.931 787.9939999999998 925.931C782.6639999999998 925.931 777.3329999999999 925.931 772.0039999999998 925.931C769.3319999999998 925.932 766.8789999999998 926.313 766.1459999999998 924.3580000000001C764.6529999999998 920.379 775.5009999999999 922.4710000000001 778.0199999999999 921.841C777.9919999999998 919.5840000000001 777.3459999999999 914.953 779.1279999999998 914.212C780.9659999999998 913.447 784.0939999999998 914.7379999999999 785.8569999999999 913.976C785.8569999999999 905.719 785.8569999999999 897.458 785.8569999999999 889.201C785.8569999999999 887.1650000000001 786.2719999999998 880.5070000000001 785.6189999999998 879.291C782.9549999999998 878.441 781.4759999999998 873.9820000000001 783.2439999999998 871.1110000000001C784.6889999999999 868.7650000000001 789.4439999999998 866.6450000000001 791.9519999999998 865.2120000000001C809.3129999999998 855.2770000000002 826.6789999999997 845.339 844.0389999999998 835.4030000000001C844.0389999999998 835.3770000000002 844.0389999999998 835.3510000000001 844.0389999999998 835.3250000000002C842.2959999999997 833.3510000000001 839.7109999999998 829.9220000000001 838.6559999999997 827.4600000000002C835.5329999999997 820.1640000000001 844.0089999999997 815.6890000000002 848.2349999999997 813.8530000000002C849.0529999999997 813.6690000000002 849.8709999999996 813.4860000000002 850.6889999999996 813.3020000000001ZM846.177 838.707C830.6890000000001 847.646 815.197 856.588 799.71 865.527C796.0120000000001 867.6370000000001 792.388 869.8180000000001 788.706 871.8190000000001C787.6990000000001 872.3660000000001 785.4 873.5580000000001 786.806 875.3580000000001C787.947 876.817 789.909 875.4960000000001 791.0020000000001 874.8860000000001C794.643 872.7890000000001 798.2850000000001 870.691 801.926 868.594C817.44 859.6550000000001 832.9580000000001 850.7130000000001 848.4720000000001 841.774C848.4720000000001 841.695 848.4720000000001 841.617 848.4720000000001 841.538C847.6650000000001 840.826 847.248 839.078 846.1770000000001 838.707ZM864.383 921.92C864.3570000000001 900.4499999999999 864.331 878.9739999999999 864.3040000000001 857.5039999999999C857.426 857.5569999999999 854.109 849.0609999999999 850.8470000000001 844.9989999999999C846.9950000000001 847.2009999999999 843.142 849.4039999999999 839.2900000000001 851.6059999999999C843.0100000000001 875.0409999999998 846.7310000000001 898.4839999999999 850.451 921.9199999999998C855.095 921.9199999999998 859.74 921.9199999999998 864.383 921.9199999999998ZM835.332 853.886C827.786 858.2379999999999 820.2379999999999 862.591 812.692 866.943C811.6370000000001 873.549 810.581 880.157 809.526 886.763C809.5519999999999 886.789 809.578 886.815 809.6049999999999 886.841C819.9999999999999 886.815 830.3979999999999 886.789 840.7939999999999 886.763C839.0789999999998 875.831 837.3629999999998 864.897 835.6479999999999 853.965C835.5429999999999 853.9390000000001 835.4369999999999 853.913 835.3319999999999 853.8860000000001ZM808.021 869.617C803.299 872.3689999999999 798.5749999999999 875.1229999999999 793.852 877.875C792.506 878.583 791.16 879.291 789.8149999999999 879.999C789.8149999999999 888.047 789.8149999999999 896.097 789.8149999999999 904.145C789.8149999999999 906.225 789.3499999999999 912.75 789.973 914.133C792.26 914.105 796.7059999999999 913.543 797.4929999999999 915.077C798.3499999999999 916.748 797.319 919.951 797.81 921.92C798.496 921.894 799.1819999999999 921.867 799.8679999999999 921.841C801.9259999999999 908.944 803.9849999999999 896.042 806.0419999999999 883.145C806.5439999999999 879.8679999999999 807.045 876.59 807.5469999999999 873.313C807.7139999999999 872.475 808.4179999999999 870.262 808.021 869.617ZM850.689 817.314C848.3199999999999 818.3249999999999 843.4649999999999 820.3639999999999 842.535 822.583C841.313 825.499 843.42 827.478 844.593 829.1899999999999C847.944 833.882 851.2959999999999 838.5759999999999 854.6469999999999 843.2679999999999C856.256 845.5489999999999 857.866 847.8299999999999 859.4749999999999 850.1109999999999C860.137 851.0429999999999 860.7099999999999 852.2669999999998 861.6919999999999 852.8639999999999C862.6489999999999 853.4459999999999 864.4339999999999 853.785 865.7289999999999 853.3359999999999C869.8169999999999 851.9169999999999 868.4659999999999 847.9629999999999 867.1539999999999 844.9199999999998C863.9089999999999 838.0259999999998 860.6629999999999 831.1289999999998 857.4169999999999 824.2349999999999C855.896 821.0829999999999 855.4999999999999 817.262 850.689 817.3139999999999ZM825.041 906.662C819.0780000000001 911.721 813.113 916.782 807.1510000000001 921.841C807.1510000000001 921.867 807.1510000000001 921.894 807.1510000000001 921.92C819.1550000000001 921.92 831.1640000000001 921.92 843.1690000000001 921.92C843.1690000000001 921.894 843.1690000000001 921.867 843.1690000000001 921.841C843.1160000000001 921.763 843.0630000000001 921.684 843.0100000000001 921.605C837.1000000000001 916.625 831.1880000000001 911.642 825.2780000000001 906.662C825.1990000000002 906.662 825.1200000000001 906.662 825.0410000000002 906.662ZM808.576 892.583C807.2040000000001 901.286 805.831 909.992 804.4590000000001 918.6949999999999C806.1160000000001 918.184 808.354 915.382 809.763 914.2909999999999C813.8530000000001 910.857 817.943 907.4209999999999 822.033 903.987C817.547 900.1859999999999 813.061 896.384 808.576 892.583ZM841.585 892.662C837.1790000000001 896.4100000000001 832.772 900.1600000000001 828.366 903.909C828.366 903.961 828.366 904.014 828.366 904.066C834.196 908.994 840.029 913.924 845.86 918.852C844.857 912.5609999999999 843.854 906.268 842.852 899.976C842.548 898.41 842.384 893.555 841.5849999999999 892.662ZM812.929 890.774C812.903 890.8 812.877 890.826 812.85 890.853C816.94 894.313 821.0310000000001 897.774 825.12 901.2349999999999C825.986 900.9679999999998 826.523 900.0879999999999 827.178 899.5829999999999C829.658 897.4859999999999 832.139 895.3879999999998 834.619 893.2909999999998C835.4250000000001 892.6619999999998 837.116 891.7719999999998 837.469 890.7739999999998C829.2900000000001 890.7739999999998 821.1080000000001 890.7739999999998 812.9290000000001 890.7739999999998ZM824.17 863.403C835.146 863.201 835.779 877.053 826.545 878.976C820.8249999999999 880.167 815.727 874.339 817.5999999999999 868.752C818.3319999999999 866.568 820.2549999999999 864.545 822.4289999999999 863.7959999999999C823.0089999999999 863.665 823.5899999999998 863.534 824.1699999999998 863.4029999999999ZM824.724 867.336C823.149 867.985 822.1310000000001 868.322 821.479 869.8530000000001C820.369 872.456 822.719 875.368 825.278 875.1220000000001C830.265 874.6440000000001 830.1700000000001 867.2070000000001 824.724 867.3360000000001ZM793.693 921.92C793.693 920.635 793.693 919.351 793.693 918.0659999999999C789.789 918.0919999999999 785.883 918.1179999999999 781.978 918.1449999999999C782.0039999999999 919.4029999999999 782.031 920.6619999999999 782.0569999999999 921.9199999999998C785.935 921.9199999999998 789.8149999999999 921.9199999999998 793.6929999999999 921.9199999999998Z " fill="#ffffff" transform="matrix(1,0,0,1,-766,-813)"></path></svg>