<svg id="SvgjsSvg1029" xmlns="http://www.w3.org/2000/svg" version="1.1" xmlns:xlink="http://www.w3.org/1999/xlink" xmlns:svgjs="http://svgjs.com/svgjs" width="110" height="113"><defs id="SvgjsDefs1030"></defs><path id="SvgjsPath1031" d="M1650.13 813.145C1652.75 813.134 1653.5700000000002 814.99 1654.88 816.2909999999999C1657.89 819.2529999999999 1660.9 822.2159999999999 1663.9 825.179C1673.4 825.1519999999999 1682.9 825.126 1692.4 825.1C1693.48 817.881 1702.8300000000002 814.76 1708.8700000000001 819.437C1710.0800000000002 820.38 1711.0200000000002 821.823 1711.64 823.37C1714.4 830.33 1709.7900000000002 835.633 1704.3500000000001 837.134C1704.3500000000001 846.571 1704.3500000000001 856.011 1704.3500000000001 865.448C1707.2 868.3059999999999 1710.0500000000002 871.164 1712.9 874.021C1713.93 874.851 1716.13 876.495 1716.47 877.875C1716.8700000000001 879.535 1715.32 880.419 1714.57 881.021C1712.29 882.8389999999999 1710.24 884.679 1707.6799999999998 886.2909999999999C1700.5199999999998 890.794 1688.08 895.555 1675.62 893.055C1672.9899999999998 892.5269999999999 1670.35 892.0749999999999 1667.9399999999998 891.246C1666.2299999999998 890.564 1664.5099999999998 889.882 1662.7999999999997 889.201C1661.6799999999998 890.498 1659.9699999999998 890.976 1658.5999999999997 892.032C1662.4499999999996 898.822 1666.3099999999997 905.614 1670.1599999999996 912.403C1671.2099999999996 914.3820000000001 1672.3199999999997 916.2620000000001 1673.3999999999996 918.145C1674.0599999999997 919.279 1674.4599999999996 920.737 1675.3799999999997 921.605C1676.6499999999996 921.399 1685.9599999999996 921.265 1686.9399999999996 921.684C1688.2399999999996 922.2429999999999 1688.6699999999996 924.3539999999999 1687.4099999999996 925.302C1686.4099999999996 926.065 1684.1099999999997 925.697 1682.5899999999997 925.695C1678.8899999999996 925.695 1675.1999999999996 925.695 1671.4999999999998 925.695C1656.2299999999998 925.721 1640.9499999999998 925.748 1625.6699999999998 925.774C1621.08 925.774 1616.4899999999998 925.774 1611.8999999999999 925.774C1610.1699999999998 926.039 1608.03 925.642 1607.54 924.594C1606.97 923.3670000000001 1607.68 921.916 1608.73 921.605C1612.58 921.5790000000001 1616.43 921.553 1620.29 921.527C1624.75 913.505 1629.21 905.481 1633.6599999999999 897.4590000000001C1634.87 895.3180000000001 1636.09 893.158 1637.31 890.931C1637.8799999999999 889.8770000000001 1638.96 888.769 1639.21 887.471C1636.1200000000001 884.884 1634.49 877.225 1636.44 872.134C1637.3200000000002 869.811 1638.8600000000001 868.249 1640 866.313C1638.4 862.952 1637.15 858.846 1636.36 854.909C1633.54 840.947 1638.62 827.67 1644.1899999999998 819.673C1645.6399999999999 817.943 1647.1 816.212 1648.5499999999997 814.482C1649.0699999999997 814.036 1649.5999999999997 813.591 1650.1299999999997 813.145ZM1650.76 818.179C1649.68 819.516 1648.6 820.853 1647.52 822.1899999999999C1644.77 826.0959999999999 1642.49 830.7579999999999 1641.11 835.954C1635.28 857.7589999999999 1647.86 876.107 1660.9699999999998 883.617C1668.1699999999998 887.736 1679.8199999999997 891.2769999999999 1691.0599999999997 888.65C1695.6799999999996 887.5699999999999 1699.6199999999997 886.023 1703.2499999999998 884.0889999999999C1706.0599999999997 882.5899999999999 1709.5299999999997 880.789 1711.3999999999999 878.347C1710.4299999999998 876.808 1708.6 875.654 1707.36 874.336C1704.05 870.815 1700.4199999999998 867.594 1697.07 864.111C1687.26 853.911 1677.1 843.971 1666.9099999999999 834.145C1663.09 830.318 1659.2599999999998 826.489 1655.4299999999998 822.662C1654.3999999999999 821.6360000000001 1652.0499999999997 818.599 1650.7599999999998 818.1790000000001ZM1696.6 835.718C1692.9299999999998 839.3879999999999 1689.26 843.059 1685.59 846.7289999999999C1688.4199999999998 849.5339999999999 1691.24 852.3399999999999 1694.06 855.145C1696.06 857.1 1697.9199999999998 859.693 1700.24 861.28C1700.24 853.232 1700.24 845.182 1700.24 837.134C1699.02 836.662 1697.81 836.19 1696.6 835.718ZM1668.1 829.269C1668.55 830.444 1671.32 832.548 1672.29 833.516C1675.72 836.9499999999999 1679.1599999999999 840.385 1682.59 843.819C1682.6399999999999 843.819 1682.6899999999998 843.819 1682.74 843.819C1686.41 840.1229999999999 1690.08 836.425 1693.75 832.7289999999999C1693.47 831.583 1692.73 830.6719999999999 1692.4 829.347C1684.3000000000002 829.321 1676.2 829.295 1668.1000000000001 829.269ZM1641.98 870.482C1641.15 871.74 1640.5 873.115 1640 874.7289999999999C1639.28 876.997 1639.94 880.1049999999999 1640.63 881.7289999999999C1643.64 888.804 1651.0200000000002 891.4899999999999 1658.7600000000002 887.2349999999999C1658.7600000000002 887.1819999999999 1658.7600000000002 887.1299999999999 1658.7600000000002 887.0769999999999C1657.6200000000001 886.3429999999998 1656.4900000000002 885.6089999999999 1655.3500000000001 884.8749999999999C1652.64 882.9639999999999 1649.63 880.6219999999998 1647.6000000000001 878.0319999999999C1646.6200000000001 876.8269999999999 1645.64 875.6199999999999 1644.67 874.4139999999999C1643.8000000000002 873.3659999999999 1643.17 871.1339999999999 1641.98 870.4819999999999ZM1701.43 821.246C1699.0600000000002 822.366 1697.3700000000001 822.832 1696.52 825.415C1695.15 829.583 1699.17 834.174 1703.48 833.122C1710.39 831.4409999999999 1709.88 821.084 1701.43 821.246ZM1642.29 890.617C1636.57 900.9449999999999 1630.84 911.2769999999999 1625.12 921.605C1626.12 921.605 1627.12 921.605 1628.12 921.605C1642.2099999999998 921.5790000000001 1656.31 921.553 1670.3899999999999 921.527C1665.09 912.1160000000001 1659.79 902.702 1654.4799999999998 893.291C1650.9699999999998 893.673 1647.5399999999997 893.3130000000001 1644.9799999999998 892.1110000000001C1644.0999999999997 891.695 1643.3199999999997 890.8340000000001 1642.2899999999997 890.6170000000001Z " fill="#ffffff" transform="matrix(1,0,0,1,-1607,-813)"></path></svg>