<svg id="SvgjsSvg1023" xmlns="http://www.w3.org/2000/svg" version="1.1" xmlns:xlink="http://www.w3.org/1999/xlink" xmlns:svgjs="http://svgjs.com/svgjs" width="103" height="112"><defs id="SvgjsDefs1024"></defs><path id="SvgjsPath1025" d="M1096.08 844.111C1094.3799999999999 848.162 1096.98 853.348 1100.35 853.864C1100.52 854.847 1098.9499999999998 857.7950000000001 1098.53 858.8190000000001C1096.82 863.118 1095.1 867.4190000000001 1093.3899999999999 871.7180000000001C1086.82 888.364 1080.2499999999998 905.0150000000001 1073.6799999999998 921.6610000000001C1069.7399999999998 922.629 1058.4799999999998 919.3900000000001 1060.1399999999999 924.729C1061.4099999999999 925.682 1063.61 925.5160000000001 1065.9199999999998 925.515C1070.0099999999998 925.515 1074.1 925.515 1078.1899999999998 925.515C1094.34 925.515 1110.4899999999998 925.515 1126.6399999999999 925.515C1131.7499999999998 925.515 1136.87 925.515 1141.9899999999998 925.515C1144.0399999999997 925.516 1147.1599999999999 925.73 1146.3499999999997 923.077C1145.6899999999996 920.945 1138.3999999999996 921.74 1135.2599999999998 921.74C1134.4199999999998 921.714 1133.5699999999997 921.688 1132.7299999999998 921.6610000000001C1131.7199999999998 920.9860000000001 1131.4299999999998 918.4300000000001 1130.9099999999999 917.2570000000001C1129.33 913.272 1127.7399999999998 909.287 1126.1599999999999 905.302C1121.4599999999998 893.453 1116.7699999999998 881.6 1112.07 869.7520000000001C1110.57 865.9770000000001 1109.06 862.201 1107.56 858.426C1107.03 857.077 1105.9299999999998 855.5200000000001 1105.82 853.9430000000001C1113.54 851.0900000000001 1111.8 839.2920000000001 1102.02 839.4710000000001C1099.11 840.8070000000001 1097.34 841.1030000000001 1096.08 844.1110000000001ZM1066.16 816.819C1063.3700000000001 819.1619999999999 1060.6100000000001 821.938 1058.64 825.078C1053.92 832.6 1050.3500000000001 844.824 1053.41 856.6949999999999C1054.77 861.958 1056.99 866.381 1059.75 870.223C1061.93 873.2679999999999 1064.39 875.7299999999999 1067.42 877.9309999999999C1068.2 878.4909999999999 1069.6000000000001 879.9879999999999 1070.91 879.819C1072.3600000000001 879.631 1073.3700000000001 877.577 1072.0900000000001 876.437C1071.3600000000001 875.991 1070.6200000000001 875.545 1069.88 875.1C1068.8000000000002 874.2090000000001 1067.71 873.317 1066.63 872.426C1065.3600000000001 871.404 1064.41 869.937 1063.39 868.6500000000001C1059.18 863.3620000000001 1057.3200000000002 857.3860000000001 1056.18 848.83C1056.24 847.1260000000001 1056.29 845.422 1056.3400000000001 843.7180000000001C1057.88 834.311 1060.1000000000001 828.5240000000001 1065.2900000000002 822.8750000000001C1066.6800000000003 821.3540000000002 1068.4400000000003 819.7670000000002 1070.1900000000003 818.6280000000002C1070.8800000000003 818.1820000000001 1071.9800000000002 817.8220000000001 1072.4100000000003 817.1340000000001C1073.5000000000002 815.3740000000001 1071.8700000000003 814.1050000000001 1070.1200000000003 814.1450000000001C1068.8000000000004 815.0360000000001 1067.4800000000002 815.9280000000001 1066.1600000000003 816.8190000000001ZM1133.76 815.089C1133.57 815.4440000000001 1133.48 816.456 1133.68 816.898C1133.98 817.5550000000001 1138.17 820.315 1139.0600000000002 821.145C1143.93 825.66 1147.2800000000002 831.196 1149.2000000000003 838.684C1149.7400000000002 840.824 1149.6900000000003 843.083 1150.0700000000002 845.448C1150.6000000000001 848.7819999999999 1149.8000000000002 852.173 1149.2000000000003 854.7289999999999C1147.5500000000002 861.6869999999999 1144.3700000000003 868.6199999999999 1139.6200000000003 872.4259999999999C1138.3000000000004 873.4739999999999 1136.9800000000002 874.5229999999999 1135.6600000000003 875.5719999999999C1135.0800000000004 875.9389999999999 1134.5000000000002 876.3059999999999 1133.9200000000003 876.6729999999999C1132.9300000000003 878.0579999999999 1134.0400000000002 880.2079999999999 1135.9800000000002 879.7399999999999C1138.5100000000002 879.1269999999998 1142.9700000000003 874.4759999999999 1144.6000000000001 872.5829999999999C1150.9900000000002 865.1929999999999 1156.3200000000002 852.1069999999999 1153.0000000000002 838.1339999999999C1151.6200000000001 832.3559999999999 1149.3500000000001 827.6229999999999 1146.3500000000001 823.5039999999999C1144.5600000000002 821.06 1138.5400000000002 814.1239999999999 1134.8700000000001 814.1449999999999C1134.5000000000002 814.4599999999999 1134.13 814.7739999999999 1133.7600000000002 815.0889999999998ZM1126.64 829.561C1127.5600000000002 830.8960000000001 1129.7 831.504 1130.75 832.7850000000001C1133.73 836.3950000000001 1135.26 839.7560000000001 1136.21 845.6060000000001C1137.27 852.0760000000001 1132.74 859.7470000000001 1129.64 862.2010000000001C1128.67 862.8830000000002 1127.69 863.5640000000002 1126.71 864.2460000000001C1125.71 865.5400000000001 1126.7 867.8640000000001 1128.69 867.392C1130.6100000000001 866.9390000000001 1133.3400000000001 864.0250000000001 1134.47 862.594C1137.99 858.154 1141.63 850.5390000000001 1139.6200000000001 841.988C1138.66 837.889 1137.0700000000002 834.7850000000001 1134.95 831.9200000000001C1133.72 830.2640000000001 1130.55 826.6540000000001 1128.06 826.493C1126.97 826.9810000000001 1125.56 828.0100000000001 1126.6399999999999 829.561ZM1069.56 859.448C1070.71 861.388 1075.45 867.8539999999999 1078.27 867.471C1079.48 867.307 1080.49 865.643 1079.61 864.403C1078.7199999999998 863.135 1075.9799999999998 861.879 1074.79 860.392C1072.2 857.1690000000001 1070.87 853.69 1070.04 848.594C1068.96 842.008 1073.12 834.5120000000001 1076.29 831.999C1077.37 831.212 1078.45 830.426 1079.54 829.639C1080.6299999999999 828.177 1079.44 826.574 1077.79 826.493C1067.35 831.4140000000001 1062.53 847.6110000000001 1069.56 859.4480000000001ZM1099.88 902.785C1099.49 903.802 1095.6200000000001 906.02 1094.5800000000002 906.7959999999999C1089.4800000000002 910.545 1084.39 914.295 1079.3000000000002 918.044C1082.38 910.2049999999999 1085.4700000000003 902.365 1088.5600000000002 894.5269999999999C1092.3300000000002 897.2789999999999 1096.1100000000001 900.0329999999999 1099.88 902.785ZM1120.46 901.684C1122.6200000000001 907.058 1124.79 912.434 1126.95 917.808C1126.95 917.886 1126.95 917.965 1126.95 918.044C1120.1200000000001 913.037 1113.28 908.028 1106.45 903.021C1106.45 902.995 1106.45 902.9689999999999 1106.45 902.942C1110.17 900.19 1113.89 897.437 1117.6100000000001 894.684C1118.6000000000001 895.435 1119.9 900.23 1120.46 901.684ZM1101.22 872.111C1101.22 881.05 1101.22 889.992 1101.22 898.931C1101.17 898.957 1101.1200000000001 898.984 1101.07 899.01C1097.3999999999999 896.31 1093.73 893.609 1090.06 890.909C1093.73 881.55 1097.3999999999999 872.189 1101.07 862.83C1101.58 863.4190000000001 1101.23 870.688 1101.22 872.111ZM1116.27 890.83C1115.51 891.9300000000001 1113.87 892.6370000000001 1112.78 893.426C1110.22 895.313 1107.66 897.201 1105.1 899.089C1105.1 887.056 1105.1 875.0200000000001 1105.1 862.988C1108.82 872.267 1112.55 881.5500000000001 1116.27 890.83ZM1101.22 910.808C1101.22 914.425 1101.22 918.044 1101.22 921.661C1094.47 921.688 1087.71 921.7139999999999 1080.96 921.7399999999999C1080.93 921.6879999999999 1080.91 921.6349999999999 1080.88 921.5829999999999C1087.6100000000001 916.6549999999999 1094.3400000000001 911.7249999999999 1101.0700000000002 906.7959999999998C1101.5600000000002 907.4919999999998 1101.2200000000003 909.7679999999998 1101.2200000000003 910.8079999999998ZM1103.84 850.639C1101.05 851.292 1098.6999999999998 848.57 1099.48 845.92C1099.99 844.216 1101.21 843.9209999999999 1102.81 843.246C1107.6799999999998 843.223 1107.9299999999998 849.679 1103.84 850.639ZM1125.37 921.583C1125.37 921.6089999999999 1125.37 921.635 1125.37 921.661C1118.6399999999999 921.661 1111.9099999999999 921.661 1105.1799999999998 921.661C1104.6999999999998 921.1179999999999 1105.0199999999998 918.8639999999999 1105.0199999999998 917.9649999999999C1105.0499999999997 914.242 1105.0799999999997 910.5189999999999 1105.0999999999997 906.7959999999999C1111.8599999999997 911.7249999999999 1118.6099999999997 916.655 1125.3699999999997 921.583Z " fill="#ffffff" transform="matrix(1,0,0,1,-1052,-814)"></path></svg>