<svg id="SvgjsSvg1014" xmlns="http://www.w3.org/2000/svg" version="1.1" xmlns:xlink="http://www.w3.org/1999/xlink" xmlns:svgjs="http://svgjs.com/svgjs" width="114" height="113"><defs id="SvgjsDefs1015"></defs><path id="SvgjsPath1016" d="M1325.73 532.145C1352.83 532.145 1379.93 532.145 1407.03 532.145C1414.1499999999999 532.145 1421.28 532.145 1428.3999999999999 532.145C1430.29 532.145 1435.4399999999998 531.707 1436.55 532.46C1438.01 533.4440000000001 1437.4199999999998 540.2330000000001 1437.4199999999998 542.842C1437.4199999999998 548.3199999999999 1437.4199999999998 553.8009999999999 1437.4199999999998 559.28C1437.4199999999998 562.161 1437.6899999999998 565.53 1436.7899999999997 567.538C1436.0499999999997 569.184 1434.7399999999998 570.187 1433.3899999999996 571.235C1433.3899999999996 589.008 1433.3899999999996 606.787 1433.3899999999996 624.5600000000001C1433.3899999999996 629.148 1433.3899999999996 633.7370000000001 1433.3899999999996 638.3240000000001C1433.3899999999996 639.9830000000001 1433.7399999999996 642.7420000000001 1432.9899999999996 643.7510000000001C1432.0899999999995 644.955 1428.9499999999996 644.5380000000001 1426.8999999999996 644.5380000000001C1421.1999999999996 644.5380000000001 1415.4999999999995 644.5380000000001 1409.7999999999997 644.5380000000001C1389.9599999999998 644.5380000000001 1370.1099999999997 644.5380000000001 1350.2699999999998 644.5380000000001C1345.1799999999998 644.5380000000001 1340.0799999999997 644.5380000000001 1334.9899999999998 644.5380000000001C1333.1499999999999 644.5380000000001 1330.1399999999999 644.9170000000001 1329.0499999999997 644.0660000000001C1328.0599999999997 643.2830000000001 1328.3399999999997 641.0190000000001 1328.3399999999997 639.2680000000001C1328.3399999999997 634.9690000000002 1328.3399999999997 630.6690000000001 1328.3399999999997 626.3690000000001C1328.3399999999997 613.0260000000002 1328.3399999999997 599.6790000000001 1328.3399999999997 586.3360000000001C1328.3399999999997 582.7180000000001 1328.3399999999997 579.1000000000001 1328.3399999999997 575.4820000000001C1328.3399999999997 574.147 1328.6299999999997 571.9140000000001 1328.0999999999997 570.9990000000001C1326.4499999999996 570.2710000000002 1325.0699999999997 568.2020000000001 1324.5399999999997 566.3580000000002C1323.9299999999998 564.2230000000002 1324.2999999999997 561.0150000000002 1324.2999999999997 558.4930000000002C1324.2999999999997 553.2240000000002 1324.2999999999997 547.9530000000002 1324.2999999999997 542.6840000000002C1324.2999999999997 540.4570000000002 1323.7399999999998 534.6940000000002 1324.5399999999997 533.1670000000001C1324.9399999999998 532.8270000000001 1325.3299999999997 532.4860000000001 1325.7299999999998 532.1450000000001ZM1338.39 569.662C1336.98 571.486 1335.0400000000002 571.664 1332.46 572.414C1332.48 595.09 1332.51 617.7719999999999 1332.54 640.448C1352.67 640.422 1372.8 640.395 1392.94 640.369C1392.94 625.873 1392.94 611.3720000000001 1392.94 596.875C1392.94 593.126 1392.94 589.377 1392.94 585.628C1392.94 584.142 1392.67 581.957 1393.3300000000002 581.066C1394.3100000000002 579.7370000000001 1398.38 580.2800000000001 1400.6100000000001 580.2800000000001C1408.42 580.306 1416.2400000000002 580.3320000000001 1424.0500000000002 580.3580000000001C1426.1000000000001 581.1540000000001 1425.3100000000002 591.7030000000001 1425.3100000000002 594.9870000000001C1425.3400000000001 610.1390000000001 1425.3700000000001 625.296 1425.39 640.4480000000001C1426.49 640.4710000000001 1428.5600000000002 640.7270000000001 1429.3500000000001 640.291C1429.3200000000002 617.6410000000001 1429.3000000000002 594.985 1429.2700000000002 572.336C1426.3600000000001 572.299 1424.9600000000003 570.9300000000001 1423.3300000000002 569.662C1423.2800000000002 569.662 1423.2300000000002 569.662 1423.17 569.662C1421.5900000000001 571.787 1417.29 573.1790000000001 1413.99 571.707C1412.89 571.216 1412.11 570.348 1411.22 569.662C1410.16 570.133 1409.45 571.2130000000001 1408.29 571.707C1404.26 573.43 1401.45 571.451 1399.11 569.662C1399.06 569.662 1399 569.662 1398.9499999999998 569.662C1396.5099999999998 571.745 1393.4699999999998 573.388 1389.5299999999997 571.471C1388.6099999999997 571.02 1387.5799999999997 570.523 1387.0799999999997 569.662C1386.9699999999998 569.662 1386.8699999999997 569.662 1386.7599999999998 569.662C1385.1999999999998 572.013 1380.7699999999998 573.0260000000001 1377.4999999999998 571.628C1376.4499999999998 571.1800000000001 1375.7299999999998 570.311 1374.8899999999999 569.662C1373.82 570.133 1373.11 571.2270000000001 1371.9599999999998 571.707C1367.8899999999999 573.395 1365.1499999999999 571.476 1362.7799999999997 569.662C1361.7199999999998 570.0540000000001 1360.9599999999998 571.2370000000001 1359.8499999999997 571.707C1355.7999999999997 573.407 1353.0299999999997 571.4639999999999 1350.6599999999996 569.662C1350.1899999999996 570.0550000000001 1349.7099999999996 570.448 1349.2399999999996 570.841C1347.5899999999995 571.997 1344.5299999999995 572.861 1341.9599999999996 571.943C1340.5299999999995 571.432 1339.6499999999996 570.102 1338.3899999999996 569.662ZM1340.61 580.28C1351.8999999999999 580.3059999999999 1363.1999999999998 580.332 1374.49 580.358C1377.6 580.358 1380.72 580.358 1383.83 580.358C1385.31 580.3589999999999 1387.23 579.9989999999999 1388.1899999999998 580.673C1389.5099999999998 581.61 1388.9799999999998 588.288 1388.9799999999998 590.74C1388.9799999999998 600.807 1388.9799999999998 610.876 1388.9799999999998 620.942C1388.9799999999998 623.478 1389.5199999999998 631.191 1388.1899999999998 632.111C1386.8999999999999 632.995 1379.6 632.426 1377.34 632.426C1367.58 632.426 1357.81 632.426 1348.05 632.426C1345.07 632.426 1337.11 633.207 1336.49 631.0880000000001C1336.49 627.2610000000001 1336.49 623.4330000000001 1336.49 619.6050000000001C1336.49 610.1680000000001 1336.49 600.7280000000002 1336.49 591.2910000000002C1336.49 589.0730000000002 1335.97 582.1720000000001 1336.89 580.9880000000002C1337.68 579.9800000000001 1339.26 580.7850000000002 1340.6100000000001 580.2800000000002ZM1340.61 584.37C1340.61 599.05 1340.61 613.734 1340.61 628.414C1351.61 628.414 1362.62 628.414 1373.62 628.414C1376.3899999999999 628.414 1379.1599999999999 628.414 1381.9299999999998 628.414C1382.83 628.414 1384.4499999999998 628.63 1384.9399999999998 628.178C1384.9099999999999 613.577 1384.8899999999999 598.971 1384.86 584.37C1370.11 584.37 1355.36 584.37 1340.61 584.37ZM1421.2 640.448C1421.2 621.757 1421.2 603.06 1421.2 584.37C1413.15 584.396 1405.1000000000001 584.422 1397.05 584.448C1397.08 603.1129999999999 1397.1 621.783 1397.1299999999999 640.448C1405.1499999999999 640.448 1413.1799999999998 640.448 1421.1999999999998 640.448ZM1356.52 598.133C1358.1299999999999 598.147 1359.6399999999999 599.558 1358.66 601.201C1355.47 604.399 1352.27 607.5980000000001 1349.0800000000002 610.796C1348.3200000000002 611.553 1346.93 613.398 1345.2 612.369C1343.29 611.229 1344.97 609.062 1345.8400000000001 608.201C1348.0000000000002 606.078 1350.16 603.9540000000001 1352.3300000000002 601.83C1353.66 600.51 1354.7400000000002 599.0070000000001 1356.5200000000002 598.133ZM1352.8 536.156C1352.21 537.2339999999999 1352.6399999999999 539.995 1352.6399999999999 541.4259999999999C1352.6699999999998 546.3539999999999 1352.6999999999998 551.2839999999999 1352.7199999999998 556.2119999999999C1355.36 556.1859999999999 1357.9999999999998 556.1599999999999 1360.6399999999999 556.1339999999999C1360.6399999999999 551.127 1360.6399999999999 546.1179999999999 1360.6399999999999 541.1109999999999C1360.6399999999999 539.9429999999999 1361.06 536.6749999999998 1360.32 536.1559999999998C1357.82 536.1559999999998 1355.31 536.1559999999998 1352.8 536.1559999999998ZM1425.31 556.212C1427.98 556.212 1430.6399999999999 556.212 1433.31 556.212C1433.33 551.389 1433.36 546.564 1433.3899999999999 541.74C1433.4599999999998 540.621 1433.52 536.548 1433.1499999999999 536.1560000000001C1430.59 536.1560000000001 1428.03 536.1560000000001 1425.4699999999998 536.1560000000001C1425.4199999999998 536.182 1425.37 536.2090000000001 1425.3099999999997 536.235C1425.3099999999997 542.893 1425.3099999999997 549.554 1425.3099999999997 556.212ZM1348.53 556.212C1348.53 551.179 1348.53 546.144 1348.53 541.111C1348.53 539.943 1348.95 536.675 1348.21 536.156C1345.65 536.1819999999999 1343.0900000000001 536.209 1340.53 536.2349999999999C1340.56 542.8929999999999 1340.58 549.5539999999999 1340.61 556.2119999999999C1343.25 556.2119999999999 1345.8899999999999 556.2119999999999 1348.53 556.2119999999999ZM1413.2 556.212C1415.8700000000001 556.212 1418.53 556.212 1421.2 556.212C1421.2 551.336 1421.2 546.459 1421.2 541.583C1421.2 540.468 1421.48 536.7819999999999 1421.04 536.156C1418.43 536.1819999999999 1415.81 536.209 1413.2 536.2349999999999C1413.2 542.8929999999999 1413.2 549.5539999999999 1413.2 556.2119999999999ZM1328.42 556.212C1331.0900000000001 556.212 1333.75 556.212 1336.42 556.212C1336.42 549.554 1336.42 542.893 1336.42 536.235C1333.78 536.2090000000001 1331.14 536.182 1328.5 536.1560000000001C1328.47 536.182 1328.45 536.2090000000001 1328.42 536.235C1328.42 542.893 1328.42 549.554 1328.42 556.212ZM1388.98 556.212C1391.64 556.186 1394.31 556.16 1396.97 556.134C1396.97 549.501 1396.97 542.867 1396.97 536.235C1396.89 536.2090000000001 1396.81 536.182 1396.74 536.1560000000001C1394.15 536.182 1391.56 536.2090000000001 1388.98 536.235C1388.98 542.893 1388.98 549.554 1388.98 556.212ZM1409.08 556.212C1409.06 549.528 1409.03 542.841 1409.01 536.156C1408.98 536.156 1408.95 536.156 1408.93 536.156C1406.3100000000002 536.1819999999999 1403.7 536.209 1401.0900000000001 536.2349999999999C1401.1200000000001 542.8929999999999 1401.14 549.5539999999999 1401.17 556.2119999999999C1403.8100000000002 556.2119999999999 1406.45 556.2119999999999 1409.0800000000002 556.2119999999999ZM1384.86 556.212C1384.86 549.554 1384.86 542.893 1384.86 536.235C1384.78 536.2090000000001 1384.6999999999998 536.182 1384.62 536.1560000000001C1382.04 536.2090000000001 1379.4499999999998 536.2610000000001 1376.87 536.3130000000001C1376.8899999999999 542.9460000000001 1376.9199999999998 549.5800000000002 1376.9499999999998 556.2120000000001C1379.58 556.2120000000001 1382.2199999999998 556.2120000000001 1384.86 556.2120000000001ZM1372.75 536.235C1370.09 536.235 1367.42 536.235 1364.75 536.235C1364.78 542.893 1364.81 549.554 1364.83 556.212C1367.47 556.186 1370.11 556.16 1372.75 556.134C1372.75 549.501 1372.75 542.867 1372.75 536.235ZM1354.15 588.145C1355.8400000000001 588.097 1357.6000000000001 589.037 1356.76 590.976C1353.86 593.938 1350.95 596.902 1348.05 599.864C1347.45 600.448 1346.06 600.898 1345.12 600.2570000000001C1343.6599999999999 599.2550000000001 1344.59 597.4050000000001 1345.4399999999998 596.5600000000001C1348.3099999999997 593.7120000000001 1351.2199999999998 590.9300000000001 1354.1499999999999 588.1450000000001ZM1376.87 560.302C1376.77 564.144 1376.76 567.1370000000001 1379.56 568.089C1383.79 569.528 1385.97 564.522 1384.78 560.302C1382.1399999999999 560.302 1379.5 560.302 1376.87 560.302ZM1388.98 560.302C1388.89 564.153 1388.8700000000001 567.1320000000001 1391.67 568.089C1395.89 569.5310000000001 1398.0800000000002 564.5160000000001 1396.89 560.302C1394.26 560.302 1391.6200000000001 560.302 1388.98 560.302ZM1364.83 560.302C1363.73 564.135 1365.54 569.013 1369.35 568.246C1371.9599999999998 567.718 1372.75 566.03 1372.75 562.819C1372.72 561.9799999999999 1372.7 561.141 1372.67 560.3019999999999C1370.0600000000002 560.3019999999999 1367.45 560.3019999999999 1364.8300000000002 560.3019999999999ZM1348.53 560.302C1345.86 560.328 1343.2 560.355 1340.53 560.381C1340.44 564.336 1340.6399999999999 569.148 1345.12 568.246C1348.61 567.545 1348.62 564.562 1348.53 560.302ZM1413.2 560.302C1413.1100000000001 564.2760000000001 1413.29 569.148 1417.79 568.246C1421.29 567.545 1421.29 564.578 1421.2 560.302C1418.53 560.302 1415.8700000000001 560.302 1413.2 560.302ZM1360.64 560.302C1357.97 560.328 1355.3100000000002 560.355 1352.64 560.381C1352.5600000000002 564.322 1352.76 569.161 1357.23 568.246C1360.7 567.537 1360.73 564.562 1360.64 560.302ZM1401.09 560.302C1401 564.272 1401.1799999999998 569.149 1405.6799999999998 568.246C1409.1799999999998 567.543 1409.1799999999998 564.581 1409.08 560.302C1406.4199999999998 560.302 1403.75 560.302 1401.09 560.302ZM1425.31 560.302C1425.31 561.823 1425.31 563.344 1425.31 564.864C1425.82 567.282 1428.29 569.041 1431.1699999999998 567.8530000000001C1434.1899999999998 566.61 1432.7199999999998 563.6450000000001 1433.3899999999999 560.4590000000001C1433.36 560.407 1433.33 560.355 1433.31 560.302C1430.6399999999999 560.302 1427.98 560.302 1425.31 560.302ZM1328.42 560.302C1328.3400000000001 564.145 1328.19 566.8720000000001 1331.03 567.8530000000001C1332 568.187 1333.24 568.3850000000001 1334.28 567.8530000000001C1337.37 566.273 1335.61 563.9810000000001 1336.49 560.4590000000001C1336.47 560.407 1336.44 560.355 1336.42 560.302C1333.75 560.302 1331.0900000000001 560.302 1328.42 560.302ZM1366.26 588.145C1372.27 587.906 1366.51 595.417 1363.8 594.516C1359.9199999999998 593.2189999999999 1365.18 588.9499999999999 1366.26 588.145ZM1360.48 594.122C1363.88 593.9939999999999 1363.25 598.149 1360.8 598.6049999999999C1359.27 598.8899999999999 1357.98 597.3309999999999 1358.5 595.853C1358.8 595.002 1359.68 594.51 1360.48 594.122ZM1401.17 609.302C1400.24 610.841 1401.7 612.95 1403.54 612.527C1406.3999999999999 611.869 1405.47 608.7700000000001 1402.75 608.201C1402.18 608.522 1401.5 608.76 1401.17 609.302Z " fill="#ffffff" transform="matrix(1,0,0,1,-1324,-532)"></path></svg>