<svg id="SvgjsSvg1011" xmlns="http://www.w3.org/2000/svg" version="1.1" xmlns:xlink="http://www.w3.org/1999/xlink" xmlns:svgjs="http://svgjs.com/svgjs" width="102" height="113"><defs id="SvgjsDefs1012"></defs><path id="SvgjsPath1013" d="M1092.97 536.785C1092.91 535.5169999999999 1092.68 533.689 1093.29 532.853C1094.17 531.631 1101.59 532.145 1103.97 532.145C1105.03 532.145 1106.09 532.145 1107.14 532.145C1108.97 532.885 1108.0800000000002 534.833 1108.49 536.785C1113.09 537.038 1118.71 539.7669999999999 1122.02 541.6619999999999C1123.08 542.3699999999999 1124.1299999999999 543.078 1125.19 543.785C1129.44 543.759 1133.69 543.733 1137.93 543.707C1139.38 544.115 1139.8 546.08 1139.44 548.1899999999999C1138.8300000000002 551.7739999999999 1137.56 552.1389999999999 1135.72 554.246C1136.46 555.4259999999999 1137.2 556.606 1137.93 557.785C1139.44 560.317 1140.69 563.405 1141.5800000000002 566.437C1141.8400000000001 567.363 1142.92 574.193 1143.16 574.4590000000001C1145.18 575.1990000000001 1148.8200000000002 573.753 1150.3600000000001 574.931C1151.3500000000001 575.6890000000001 1151.18 578.264 1150.92 579.572C1150.24 582.866 1148.3600000000001 585.08 1145.3000000000002 585.943C1144.3500000000001 586.047 1143.4 586.1519999999999 1142.4500000000003 586.257C1142.4100000000003 589.6919999999999 1139.9600000000003 595.1869999999999 1138.6500000000003 597.7399999999999C1137.9300000000003 598.9979999999999 1137.2200000000003 600.257 1136.5100000000002 601.5149999999999C1140.0700000000002 601.4199999999998 1140.0500000000002 604.8559999999999 1139.1200000000001 607.8079999999999C1137.8700000000001 611.7919999999999 1131.3700000000001 615.4289999999999 1127.17 611.6619999999999C1124.23 613.2379999999999 1121.76 616.054 1118.22 617.0099999999999C1119.96 622.5929999999998 1121.71 628.1789999999999 1123.45 633.7629999999999C1123.8500000000001 634.9479999999999 1124.76 639.4469999999999 1125.51 639.9759999999999C1128.18 640.9539999999998 1141.53 637.9869999999999 1139.28 642.7289999999999C1138.61 644.304 1136.62 644.0659999999999 1134.37 644.0659999999999C1130.1 644.0659999999999 1125.82 644.0659999999999 1121.55 644.0659999999999C1106.1699999999998 644.0659999999999 1090.78 644.0659999999999 1075.3999999999999 644.0659999999999C1072.1599999999999 644.0659999999999 1059.6 645.4279999999999 1062.1799999999998 640.9989999999999C1063.4199999999998 638.8679999999999 1072.9199999999998 640.7459999999999 1076.0299999999997 639.9759999999999C1078.4099999999999 632.3209999999999 1080.7799999999997 624.6639999999999 1083.1599999999999 617.0099999999999C1079.8 616.2029999999999 1076.85 613.4539999999998 1074.29 611.6619999999999C1069.81 614.15 1065.03 613.137 1062.81 609.0659999999999C1062.1 607.7529999999999 1061.07 602.954 1062.73 601.8299999999999C1063.25 601.4759999999999 1064.14 601.6139999999999 1064.8700000000001 601.4369999999999C1064.8700000000001 601.358 1064.8700000000001 601.2799999999999 1064.8700000000001 601.2009999999999C1064.13 600.5349999999999 1063.7800000000002 599.4339999999999 1063.2900000000002 598.5269999999999C1062.0200000000002 596.1969999999999 1060.88 593.622 1059.9600000000003 590.8979999999999C1059.5700000000002 589.2979999999999 1059.1700000000003 587.699 1058.7700000000002 586.0999999999999C1054.3100000000002 586.718 1051.2800000000002 583.4369999999999 1050.5400000000002 579.9649999999999C1050.2800000000002 578.7289999999999 1049.9700000000003 576.0369999999999 1050.7800000000002 575.1669999999999C1052.1100000000001 573.7459999999999 1056.1600000000003 575.002 1058.38 574.459C1058.3200000000002 567.087 1062.6000000000001 558.693 1065.74 554.246C1063.98 552.438 1062.48 551.492 1061.94 548.347C1061.5800000000002 546.2289999999999 1061.97 544.097 1063.44 543.707C1067.69 543.733 1071.94 543.759 1076.19 543.785C1077.54 542.92 1078.88 542.055 1080.23 541.1899999999999C1083.72 539.3109999999999 1088.26 537.1479999999999 1092.97 536.785ZM1139.04 574.538C1139.12 568.751 1136.45 563.652 1134.37 559.7520000000001C1133.6699999999998 558.4290000000001 1132.7299999999998 556.057 1131.4399999999998 555.3470000000001C1130.86 555.2680000000001 1130.2799999999997 555.19 1129.6999999999998 555.1110000000001C1129.0399999999997 554.8230000000001 1128.3799999999999 554.5340000000001 1127.7199999999998 554.2460000000001C1120.9399999999998 561.0090000000001 1114.1599999999999 567.7750000000001 1107.3799999999999 574.5380000000001C1107.6699999999998 575.1670000000001 1107.9599999999998 575.7970000000001 1108.2499999999998 576.4260000000002C1117.3299999999997 576.4260000000002 1126.3999999999999 576.4260000000002 1135.4799999999998 576.4260000000002C1135.6499999999999 574.6560000000002 1136.9899999999998 574.4560000000001 1139.0399999999997 574.5380000000001ZM1073.42 554.325C1072.67 554.912 1070.0600000000002 555.0300000000001 1069.6200000000001 555.504C1066.71 558.642 1064.3500000000001 564.588 1063.13 569.347C1062.8400000000001 571.025 1062.5500000000002 572.703 1062.2600000000002 574.381C1062.2800000000002 574.433 1062.3100000000002 574.486 1062.3400000000001 574.538C1064.42 574.456 1065.67 574.66 1065.9 576.426C1072.92 576.452 1079.94 576.4780000000001 1086.96 576.504C1089.01 576.504 1091.07 576.504 1093.13 576.504C1093.39 575.797 1093.66 575.089 1093.92 574.381C1087.17 567.696 1080.41 561.009 1073.66 554.3249999999999C1073.5800000000002 554.3249999999999 1073.5 554.3249999999999 1073.42 554.3249999999999ZM1094.16 540.482C1092.68 540.823 1091.2 541.164 1089.73 541.504C1086.98 542.328 1078.7 545.793 1077.54 547.639L1076.51 551.572C1083.26 558.283 1090.02 564.996 1096.77 571.707C1097.43 571.444 1098.09 571.182 1098.75 570.92C1098.75 561.7969999999999 1098.75 552.6719999999999 1098.75 543.549C1097.58 543.199 1096.53 542.648 1095.66 541.976C1095.1100000000001 541.547 1094.8100000000002 540.811 1094.16 540.482ZM1106.98 540.561C1106.34 541.432 1105.42 542.3140000000001 1104.45 542.842C1103.8700000000001 543.1039999999999 1103.29 543.366 1102.71 543.6279999999999C1102.71 552.751 1102.71 561.876 1102.71 570.9989999999999C1103.31 571.2349999999999 1103.92 571.4709999999999 1104.53 571.7069999999999C1105.55 571.1079999999998 1106.26 570.0179999999999 1107.06 569.1899999999998C1108.58 567.6269999999998 1110.1699999999998 566.0639999999999 1111.73 564.5489999999999C1114.7 561.6809999999998 1117.53 558.6569999999998 1120.52 555.8189999999998C1122 554.3509999999999 1123.47 552.8829999999998 1124.95 551.4149999999998C1124.5 550.6419999999998 1124.13 549.6719999999998 1123.92 548.6619999999998C1123.9 548.3209999999998 1123.8700000000001 547.9799999999998 1123.8400000000001 547.6389999999998C1122.63 546.8529999999998 1121.42 546.0659999999998 1120.2 545.2799999999997C1116.77 543.2119999999998 1112.01 540.7569999999997 1106.98 540.5609999999997ZM1108.25 580.358C1107.99 581.04 1107.72 581.722 1107.46 582.4029999999999C1113.02 587.9609999999999 1118.5900000000001 593.5199999999999 1124.16 599.0769999999999C1125 599.8899999999999 1125.8500000000001 600.7029999999999 1126.69 601.5149999999999C1127.72 601.8979999999999 1131.45 601.4529999999999 1131.92 601.1219999999998C1132.74 599.8639999999998 1133.5500000000002 598.6049999999998 1134.3700000000001 597.3469999999999C1136.0800000000002 594.2609999999999 1138.63 589.0349999999999 1138.73 584.6839999999999C1137.13 583.5699999999998 1136.63 582.0979999999998 1135.64 580.3579999999998C1126.51 580.3579999999998 1117.38 580.3579999999998 1108.25 580.3579999999998ZM1065.66 580.358C1064.94 582.4499999999999 1063.8500000000001 583.28 1062.65 584.7629999999999C1062.7 590.0169999999999 1067.26 598.5249999999999 1069.8600000000001 601.5149999999999C1071.47 601.5149999999999 1073.0800000000002 601.5149999999999 1074.69 601.5149999999999C1081.1000000000001 595.1189999999999 1087.51 588.7209999999999 1093.92 582.3249999999998C1093.68 581.6689999999999 1093.45 581.0139999999998 1093.21 580.3579999999998C1084.03 580.3579999999998 1074.8400000000001 580.3579999999998 1065.66 580.3579999999998ZM1086.88 618.583C1084.63 625.687 1082.39 632.793 1080.15 639.8969999999999C1080.17 639.9499999999999 1080.2 640.002 1080.23 640.055C1086.4 640.029 1092.58 640.002 1098.75 639.976C1098.72 634.838 1098.7 629.698 1098.67 624.56C1098.04 624.2719999999999 1097.4 623.9839999999999 1096.77 623.6949999999999C1095.3899999999999 622.9229999999999 1094.35 621.574 1093.6 620.156C1091.11 620.0179999999999 1089.1399999999999 618.853 1086.8799999999999 618.583ZM1109.83 590.347C1111.6299999999999 596.062 1113.4199999999998 601.778 1115.22 607.4929999999999C1115.68 608.89 1116.22 612.3939999999999 1117.1200000000001 613.2349999999999C1119.2500000000002 612.3389999999999 1123.23 610.2549999999999 1124.5600000000002 608.5939999999999C1124.3500000000001 607.886 1124.13 607.1779999999999 1123.92 606.4709999999999C1123.9 605.7099999999999 1123.8700000000001 604.9499999999999 1123.8400000000001 604.1899999999999C1119.17 599.5759999999999 1114.5000000000002 594.9609999999999 1109.8300000000002 590.347ZM1091.47 590.347C1086.82 594.961 1082.18 599.576 1077.54 604.1899999999999C1077.51 604.9759999999999 1077.48 605.7629999999999 1077.46 606.549C1077.24 607.257 1077.03 607.965 1076.82 608.673C1079.31 610.165 1081.47 612.024 1084.34 613.235C1086.1899999999998 607.494 1088.04 601.751 1089.8799999999999 596.01C1090.1499999999999 595.207 1091.58 590.48 1091.4699999999998 590.347ZM1103.74 585.471C1103.3700000000001 585.654 1103 585.838 1102.63 586.021C1102.66 595.039 1102.68 604.06 1102.71 613.077C1104.8500000000001 613.032 1107.69 612.683 1108.33 614.178C1108.4099999999999 614.808 1108.49 615.437 1108.57 616.066C1108.59 616.066 1108.62 616.066 1108.6499999999999 616.066C1109.9199999999998 615.784 1112.4399999999998 615.501 1113.2399999999998 614.65C1110.1999999999998 604.925 1107.1699999999998 595.196 1104.1299999999999 585.471C1103.9999999999998 585.471 1103.87 585.471 1103.7399999999998 585.471ZM1097.4 585.392C1096.51 587.024 1096.16 589.1740000000001 1095.5800000000002 591.0550000000001C1093.8700000000001 596.5340000000001 1092.15 602.014 1090.44 607.493C1090.02 608.769 1087.89 613.894 1088.3 614.8860000000001C1089.8 615.2790000000001 1091.31 615.6730000000001 1092.81 616.066C1092.84 616.0400000000001 1092.87 616.014 1092.8899999999999 615.9870000000001C1092.86 612.8570000000001 1094.4399999999998 613.0910000000001 1097.4799999999998 613.0770000000001C1098.0399999999997 613.0750000000002 1098.4199999999998 613.1450000000001 1098.6699999999998 612.8410000000001C1098.6699999999998 603.9020000000002 1098.6699999999998 594.9600000000002 1098.6699999999998 586.0210000000001C1098.4199999999998 585.6880000000001 1097.82 585.5530000000001 1097.3999999999999 585.392ZM1100.02 574.617C1098.72 575.2479999999999 1097.62 575.616 1097.09 576.976C1096.06 579.619 1098.27 582.837 1101.1999999999998 582.246C1105.86 581.308 1105.6499999999999 574.448 1100.0199999999998 574.617ZM1061.94 578.471C1059.38 578.497 1056.8200000000002 578.523 1054.26 578.549C1054.26 578.576 1054.26 578.602 1054.26 578.6279999999999C1054.84 583.434 1061.89 583.328 1061.94 578.4709999999999ZM1135.48 605.448C1132.92 605.4739999999999 1130.3600000000001 605.501 1127.8 605.5269999999999C1127.8 605.5529999999999 1127.8 605.579 1127.8 605.6049999999999C1128.68 610.3749999999999 1135.49 610.3119999999999 1135.48 605.4479999999999ZM1096.93 617.01C1096.77 617.624 1097.1100000000001 618.14 1097.3300000000002 618.583C1099.2300000000002 622.448 1105.2900000000002 620.355 1104.45 617.01C1101.94 617.01 1099.44 617.01 1096.93 617.01ZM1065.98 547.639C1064.98 551.672 1073.16 553.206 1073.58 547.718C1073.55 547.692 1073.52 547.665 1073.5 547.639C1070.99 547.639 1068.48 547.639 1065.98 547.639ZM1065.9 605.448C1065.99 610.347 1073.45 610.23 1073.5800000000002 605.448C1071.0200000000002 605.448 1068.4600000000003 605.448 1065.9 605.448ZM1139.52 578.471C1139.35 579.143 1139.72 579.824 1139.99 580.28C1142.07 583.702 1147.88 581.856 1147.04 578.471C1144.53 578.471 1142.02 578.471 1139.52 578.471ZM1127.88 547.639C1127.3400000000001 552.94 1136.5600000000002 551.961 1135.4 547.639C1132.89 547.639 1130.39 547.639 1127.88 547.639ZM1096.93 536.078C1096.1200000000001 540.847 1105.21 540.941 1104.45 536.078C1101.94 536.078 1099.44 536.078 1096.93 536.078ZM1121.15 640.055C1118.94 632.8979999999999 1116.72 625.7389999999999 1114.5 618.583C1114.4 618.583 1114.29 618.583 1114.19 618.583C1112.19 619.338 1109.96 619.699 1107.7 620.235C1106.99 621.804 1105.75 623.035 1104.29 623.852C1103.81 624.12 1103.03 624.134 1102.71 624.56C1102.71 629.7249999999999 1102.71 634.89 1102.71 640.055C1108.8600000000001 640.055 1115 640.055 1121.15 640.055Z " fill="#ffffff" transform="matrix(1,0,0,1,-1050,-532)"></path></svg>