<svg id="SvgjsSvg1017" xmlns="http://www.w3.org/2000/svg" version="1.1" xmlns:xlink="http://www.w3.org/1999/xlink" xmlns:svgjs="http://svgjs.com/svgjs" width="122" height="113"><defs id="SvgjsDefs1018"></defs><path id="SvgjsPath1019" d="M1664.24 532.381C1677.03 532.201 1685.05 538.751 1688.54 547.797C1689.33 549.8430000000001 1689.3899999999999 552.037 1690.04 554.403C1692.78 554.45 1692.77 558.025 1690.12 558.493C1690.1499999999999 572.4920000000001 1690.1699999999998 586.494 1690.1999999999998 600.493C1692.84 600.4670000000001 1695.4799999999998 600.441 1698.12 600.4140000000001C1698.06 593.4770000000001 1697.1699999999998 584.373 1700.1799999999998 580.3580000000001C1705.09 573.7940000000001 1715.08 576.201 1717.83 583.032C1719.1 586.192 1718.3799999999999 592.003 1718.3799999999999 596.089C1718.3799999999999 603.586 1718.3799999999999 611.086 1718.3799999999999 618.5830000000001C1718.3799999999999 622.2280000000001 1718.86 626.9320000000001 1717.9099999999999 629.83C1717.1399999999999 632.144 1715.29 634.206 1713.32 635.336C1712.31 635.729 1711.31 636.122 1710.31 636.515C1710.33 637.879 1710.36 639.242 1710.3899999999999 640.605C1713.4899999999998 640.561 1724.7399999999998 639.328 1722.1799999999998 643.673C1721.35 645.084 1718.4699999999998 644.696 1716.2399999999998 644.695C1710.62 644.695 1704.9999999999998 644.695 1699.3799999999999 644.695C1675.6899999999998 644.695 1651.9899999999998 644.695 1628.3 644.695C1621.49 644.695 1614.68 644.695 1607.87 644.695C1604.6499999999999 644.696 1601.12 645.432 1601.1499999999999 642.1C1601.7099999999998 641.649 1601.83 640.839 1602.6499999999999 640.605C1607.56 640.5790000000001 1612.4699999999998 640.553 1617.37 640.527C1617.3999999999999 639.311 1617.6399999999999 637.2750000000001 1617.2199999999998 636.3580000000001C1614.8399999999997 636.243 1612.8799999999999 635.033 1611.36 633.999C1604.3999999999999 629.263 1605.26 623.21 1605.26 611.976C1605.26 607.708 1604.66 602.183 1605.74 598.684C1607.39 593.3009999999999 1611.3700000000001 589.872 1617.29 588.6949999999999C1617.37 585.261 1617.45 581.8259999999999 1617.53 578.3919999999999C1618.69 573.828 1621.74 571.2689999999999 1626.71 570.448C1631.67 570.422 1636.64 570.396 1641.6000000000001 570.37C1641.6000000000001 566.4110000000001 1641.6000000000001 562.452 1641.6000000000001 558.493C1640.0300000000002 558.23 1638.65 556.143 1640.2500000000002 554.875C1640.7500000000002 554.666 1641.2500000000002 554.456 1641.7500000000002 554.246C1641.8000000000002 544.989 1649.9800000000002 536.646 1656.8700000000001 534.033C1658.47 533.428 1660.23 532.9780000000001 1662.0200000000002 532.617C1662.7600000000002 532.538 1663.5000000000002 532.4599999999999 1664.2400000000002 532.381ZM1627.03 574.459C1626.37 574.617 1625.71 574.774 1625.05 574.9309999999999C1621.8 576.367 1621.4099999999999 579.29 1621.4099999999999 584.055C1621.4099999999999 585.087 1621.0099999999998 588.2009999999999 1621.6499999999999 588.6949999999999C1622.4399999999998 588.8789999999999 1623.2299999999998 589.0619999999999 1624.0199999999998 589.246C1627.2999999999997 590.409 1630.1799999999998 592.775 1631.7799999999997 595.617C1634.5199999999998 600.4789999999999 1633.5999999999997 609.9509999999999 1633.5999999999997 617.403C1633.5999999999997 621.191 1633.7199999999996 624.9440000000001 1632.6499999999996 627.628C1631.2199999999996 631.2320000000001 1628.2499999999995 634.282 1624.5799999999997 635.6500000000001C1623.5199999999998 635.9390000000001 1622.4699999999998 636.2270000000001 1621.4099999999996 636.5150000000001C1621.4399999999996 637.8790000000001 1621.4599999999996 639.2420000000001 1621.4899999999996 640.6050000000001C1632.2299999999996 640.5790000000002 1642.9699999999996 640.5530000000001 1653.7099999999996 640.5270000000002C1653.7299999999996 638.7610000000002 1654.1399999999996 634.5030000000002 1653.5499999999995 633.2120000000001C1649.1399999999994 631.4650000000001 1644.7099999999996 625.3590000000002 1643.0199999999995 620.7850000000001C1642.6799999999996 619.527 1642.3399999999995 618.268 1641.9899999999996 617.0100000000001C1641.8599999999994 616.1970000000001 1641.7299999999996 615.3840000000001 1641.5999999999995 614.5720000000001C1639.9799999999996 614.5290000000001 1638.9199999999994 612.5820000000001 1640.0099999999995 611.1900000000002C1640.3499999999995 610.7610000000002 1641.0699999999995 610.6390000000001 1641.5999999999995 610.4030000000001C1641.5699999999995 598.4230000000001 1641.5399999999995 586.4390000000001 1641.5199999999995 574.4590000000002C1636.6899999999996 574.4590000000002 1631.8599999999994 574.4590000000002 1627.0299999999995 574.4590000000002ZM1645.79 558.415C1645.74 558.4929999999999 1645.69 558.572 1645.6299999999999 558.65C1645.6599999999999 575.9259999999999 1645.6899999999998 593.206 1645.7099999999998 610.482C1659.1399999999999 610.482 1672.5799999999997 610.482 1686.0099999999998 610.482C1686.0099999999998 597.427 1686.0099999999998 584.3679999999999 1686.0099999999998 571.313C1686.0099999999998 568.115 1686.0099999999998 564.9159999999999 1686.0099999999998 561.718C1685.8499999999997 560.6659999999999 1686.4599999999998 559.0749999999999 1685.8499999999997 558.415C1672.4999999999998 558.415 1659.1399999999996 558.415 1645.7899999999997 558.415ZM1698.12 604.583C1695.4499999999998 604.6089999999999 1692.79 604.635 1690.12 604.6619999999999C1690.1 606.314 1689.6799999999998 609.252 1690.28 610.56C1692.97 610.707 1692.55 614.179 1689.96 614.65C1690.07 621.6999999999999 1683.04 631.564 1678.01 633.2909999999999C1678.04 635.7289999999999 1678.06 638.1669999999999 1678.09 640.6049999999999C1687.48 640.579 1696.8799999999999 640.5529999999999 1706.27 640.5269999999999C1706.29 639.2389999999999 1706.48 637.371 1706.11 636.358C1702.4299999999998 636.068 1699.4299999999998 632.56 1698.51 629.4369999999999C1697.83 627.0909999999999 1698.12 623.627 1698.12 620.7059999999999C1698.12 615.3329999999999 1698.12 609.9569999999999 1698.12 604.5829999999999ZM1618.48 592.549C1617.56 592.759 1616.63 592.9689999999999 1615.71 593.178C1612.81 594.308 1610.54 596.845 1609.6200000000001 599.942C1608.66 603.129 1609.3000000000002 608.0840000000001 1609.3000000000002 611.819C1609.3000000000002 621.4269999999999 1608.2700000000002 627.775 1614.6800000000003 631.324C1615.8700000000003 631.9799999999999 1617.8200000000004 632.8679999999999 1619.8300000000004 632.583C1624.1400000000003 631.972 1626.9100000000003 630.136 1628.5400000000004 626.92C1630.0700000000004 623.89 1629.4900000000005 618.125 1629.4900000000005 613.7059999999999C1629.4900000000005 610.7969999999999 1629.4900000000005 607.8859999999999 1629.4900000000005 604.9759999999999C1629.4900000000005 603.3189999999998 1629.6300000000006 601.5359999999998 1629.2500000000005 600.1779999999999C1627.9400000000005 595.5649999999998 1624.5200000000004 592.5059999999999 1618.4800000000005 592.5489999999999ZM1645.95 614.572C1645.9 614.598 1645.8400000000001 614.624 1645.79 614.65C1647.08 624.867 1653.81 630.749 1663.68 632.504C1672.73 634.113 1681.04 627.16 1683.63 621.886C1684.24 620.636 1686.46 616.276 1685.7700000000002 614.572C1672.5000000000002 614.572 1659.2200000000003 614.572 1645.9500000000003 614.572ZM1663.84 536.471C1662.9199999999998 536.628 1661.99 536.785 1661.07 536.943C1659.9099999999999 537.336 1658.75 537.7289999999999 1657.59 538.122C1651.36 540.924 1646.87 546.387 1645.79 554.3249999999999C1645.82 554.3509999999999 1645.84 554.377 1645.87 554.4029999999999C1659.1999999999998 554.4029999999999 1672.52 554.4029999999999 1685.85 554.4029999999999C1685.87 554.3249999999999 1685.8999999999999 554.2459999999999 1685.9299999999998 554.1669999999999C1685.4899999999998 552.521 1685.4499999999998 550.8889999999999 1684.82 549.4479999999999C1681.35 541.4869999999999 1675.4399999999998 536.4349999999998 1663.84 536.4709999999999ZM1707.54 580.516C1705.52 581.4259999999999 1704.08 581.629 1703.02 583.4259999999999C1701.68 585.7109999999999 1702.23 590.6329999999999 1702.23 594.122C1702.23 602.3539999999999 1702.23 610.587 1702.23 618.819C1702.23 624.8199999999999 1701.33 629.693 1705.48 631.7959999999999C1706.22 632.1709999999999 1707.31 632.761 1708.57 632.583C1715.21 631.6419999999999 1714.27 626.357 1714.27 619.055C1714.27 611.4259999999999 1714.27 603.7959999999999 1714.27 596.1669999999999C1714.27 592.2189999999999 1715.06 585.9909999999999 1713.47 583.3469999999999C1712.41 581.5639999999999 1710.45 580.4909999999999 1707.54 580.5159999999998ZM1659.09 540.325C1661.32 540.2570000000001 1663.53 541.541 1661.9399999999998 543.628C1661.1999999999998 544.599 1658.7599999999998 544.4340000000001 1657.7499999999998 545.1220000000001C1656.6399999999999 545.8710000000001 1656.4699999999998 547.686 1655.3699999999997 548.3470000000001C1654.9199999999996 548.618 1653.7699999999998 548.7150000000001 1653.2299999999996 548.426C1651.8599999999997 547.6890000000001 1652.2199999999996 545.975 1652.8399999999995 544.808C1654.4099999999994 541.837 1655.8999999999994 541.647 1659.0899999999995 540.325ZM1679.75 582.325C1682.68 582.326 1682.79 586.186 1680.23 586.6500000000001C1678.54 586.9540000000001 1677.18 584.8380000000001 1678.09 583.3470000000001C1678.4299999999998 582.782 1679.11 582.6140000000001 1679.75 582.325ZM1679.83 574.302C1682.56 574.429 1682.83 578.111 1680.3899999999999 578.628C1677.6699999999998 579.202 1676.77 575.505 1679.83 574.302ZM1679.67 598.369C1682.73 598.256 1682.78 602.229 1680.23 602.695C1677.65 603.167 1676.95 599.61 1679.67 598.369ZM1679.75 590.347C1682.69 590.292 1682.78 594.244 1680.23 594.673C1677.6 595.115 1676.96 591.549 1679.75 590.347ZM1679.44 566.358C1682.21 566.212 1683.01 569.396 1680.94 570.448C1678.55 571.659 1676.48 568.286 1679.44 566.358ZM1657.82 635.336C1657.85 637.092 1657.8799999999999 638.849 1657.8999999999999 640.605C1663.2299999999998 640.5790000000001 1668.56 640.553 1673.8899999999999 640.527C1673.8899999999999 638.796 1673.8899999999999 637.066 1673.8899999999999 635.336C1671.9099999999999 635.501 1669.84 636.244 1667.6399999999999 636.594C1663.6999999999998 637.2220000000001 1660.7599999999998 635.5880000000001 1657.82 635.336Z " fill="#ffffff" transform="matrix(1,0,0,1,-1601,-532)"></path></svg>