<?xml version="1.0" encoding="utf-8"?>
<!-- Generator: Adobe Illustrator 19.1.1, SVG Export Plug-In . SVG Version: 6.00 Build 0)  -->
<svg version="1.1" id="Слой_1" xmlns="http://www.w3.org/2000/svg" xmlns:xlink="http://www.w3.org/1999/xlink" x="0px" y="0px"
	 viewBox="0 0 111.5 42" style="enable-background:new 0 0 111.5 42;" xml:space="preserve">
<style type="text/css">
	.st0{fill:#6E83D9;}
	.st1{fill:#FFFFFF;}
</style>
<path class="st0" d="M106,42.3H76c-3.3,0-6-2.7-6-6v-30c0-3.3,2.7-6,6-6h30c3.3,0,6,2.7,6,6v30C112,39.5,109.3,42.3,106,42.3z"/>
<path class="st0" d="M32.3,20L42,32.4h-5.7l-8.1-10v10h-4.6V8.9h4.6v10.4l7.5-10.4H41L32.3,20z"/>
<path class="st0" d="M61.7,36.5h-3.8v-4.2H43.4V8.9H48v19.4h7.1V8.9h4.6v19.4h2V36.5z"/>
<path class="st1" d="M101.1,24.6V13.9h-2.5L91.3,24v3.2h7v3h2.8v-3h2.6v-2.7H101.1z M94,24.6l4.3-5.9v5.9H94z"/>
<g>
	<g>
		<path class="st0" d="M17.2,32.4h4.4L14.2,8.7H8.8L1.3,32.4h4.2l1.4-4.6h8.8L17.2,32.4z M8,24.3l3-9.7h0.7l2.9,9.7H8z"/>
	</g>
</g>
<path class="st1" d="M79.4,18.2c0.1-0.7,0.3-1.3,0.6-1.8c0.3-0.5,0.7-1,1.1-1.4c0.4-0.4,0.9-0.7,1.5-0.9c0.6-0.2,1.2-0.3,1.8-0.3
	c0.7,0,1.3,0.1,1.9,0.3c0.6,0.2,1.1,0.5,1.5,0.8c0.4,0.4,0.8,0.8,1,1.4c0.3,0.5,0.4,1.2,0.4,1.9c0,0.5-0.1,1.1-0.3,1.7
	S88.4,21,88,21.4l-5.2,6.3h7.3v2.6H79.3v-2.4l6.4-7.8c0.5-0.6,0.7-1.2,0.7-1.7c0-0.5-0.2-1-0.5-1.4c-0.3-0.4-0.9-0.6-1.6-0.6
	c-0.6,0-1.1,0.2-1.5,0.6c-0.4,0.4-0.7,1-0.8,1.7L79.4,18.2z"/>
</svg>
