<?xml version="1.0" encoding="utf-8"?>
<!-- Generator: Adobe Illustrator 19.1.1, SVG Export Plug-In . SVG Version: 6.00 Build 0)  -->
<svg version="1.1" id="Слой_1" xmlns="http://www.w3.org/2000/svg" xmlns:xlink="http://www.w3.org/1999/xlink" x="0px" y="0px"
	 viewBox="0 0 842 595" style="enable-background:new 0 0 842 595;" xml:space="preserve">
<style type="text/css">
	.st0{fill-rule:evenodd;clip-rule:evenodd;fill:#AFBAF0;}
	.st1{fill-rule:evenodd;clip-rule:evenodd;fill:#5368CA;}
	.st2{fill-rule:evenodd;clip-rule:evenodd;fill:#3F509E;}
	.st3{fill-rule:evenodd;clip-rule:evenodd;fill:#2A3E70;}
	.st4{fill-rule:evenodd;clip-rule:evenodd;fill:#E70707;}
	.st5{fill-rule:evenodd;clip-rule:evenodd;fill:#FEFEFE;}
	.st6{fill-rule:evenodd;clip-rule:evenodd;fill:#CC0606;}
</style>
<g>
	<path class="st0" d="M158.8,118.6h552.3c23.9,0,43.4,19.5,43.4,43.4v285.1H115.4V162C115.4,138.2,134.9,118.6,158.8,118.6z"/>
	<rect x="74.8" y="144.2" class="st1" width="593.4" height="303"/>
	<polygon class="st2" points="177.8,222.1 197.5,221.2 254.8,278.9 255.7,222.1 283.6,221.2 309.7,247.5 361.1,221.2 376.3,236.5 
		404.9,221.2 451.2,267.8 479.3,221.2 535.2,277.4 639.1,382.1 668.2,447.2 192.8,447.2 114.8,368.3 	"/>
	<polygon class="st3" points="543.4,414.3 668.2,408 668.2,447.2 576.1,447.2 	"/>
	<path class="st4" d="M575.7,162.5h174.1c23.9,0,43.4,19.5,43.4,43.4v179.5c0,23.9-19.5,43.4-43.4,43.4H575.7
		c-23.9,0-43.4-19.5-43.4-43.4V205.9C532.3,182,551.8,162.5,575.7,162.5z"/>
	<g>
		<path class="st5" d="M210.1,367.9l-8-28.9h-51.1l-8.3,28.9h-27.3l43.3-146.2h38.5l43.4,146.2H210.1L210.1,367.9z M176.8,248.3
			l-19.5,68.2h38.5L176.8,248.3L176.8,248.3z M327.2,367.9l-44-70.7v70.7h-28V221.6h28v66.7l43.8-66.7h33.2l-49.7,69.8l52.3,76.5
			H327.2L327.2,367.9z M491.7,343.8l-1.8,47.2h-25.7v-23.1h-87.6V221.6h27.7v122.2h46.8V221.6h27.7v122.2H491.7z"/>
		<path class="st5" d="M209.6,368l-7.9-28.6h-50.5l-8.3,28.9h-28.2c14.5-49,29.1-98,43.5-147.1h39.1c14.6,49,29.1,98.1,43.6,147.1
			h-31.4L209.6,368L209.6,368z M202.5,338.9l7.9,28.6h29.5l-43.1-145.4H159l-43,145.4h26.4l8.3-28.9h51.8L202.5,338.9L202.5,338.9z
			 M176.8,249.9l-18.9,66.2h37.3L176.8,249.9L176.8,249.9z M156.9,316.4l-0.2,0.6h39.6c-6.5-23.4-13-46.8-19.6-70.3L156.9,316.4
			L156.9,316.4z M326.9,368.1l-43.2-69.4v69.6h-28.8V221.2h28.8v65.7l43.1-65.7h34.3l-50,70.2l52.6,76.9c-12.2,0-24.4,0-36.7,0
			L326.9,368.1L326.9,368.1z M283.6,296.9l43.9,70.5H362l-52-76l49.4-69.3h-32.2l-44.4,67.7v-67.7h-27.1v145.4h27.1v-71.8
			L283.6,296.9L283.6,296.9z M492.2,343.8l-1.8,47.6h-26.6v-23.1h-87.6V221.2h28.6v122.2h45.9V221.2h28.6v122.2h12.8L492.2,343.8
			L492.2,343.8z M489.5,390.6l1.8-46.3h-12.8V222.1h-26.9v122.2H404V222.1h-26.9v145.4h87.6v23.1H489.5z"/>
	</g>
	<path class="st6" d="M639.4,243.6l53.1,52.6l50.3-63.4l50.5,50.5v102.1c0,23.9-19.5,43.4-43.4,43.4H632.2l-67.8-68.2l57.9-67.6
		L639.4,243.6z"/>
	<g>
		<path class="st5" d="M566.3,358.8v-17.1l29.4-29.4c5.5-5.5,9.9-10.3,13.2-14.2c3.3-4,5.9-7.6,7.7-10.7c1.8-3.1,3-6,3.6-8.7
			c0.6-2.7,0.8-5.4,0.8-8.3c0-2.3-0.4-4.6-1.1-6.7c-0.8-2.1-1.9-4-3.3-5.5c-1.4-1.6-3.3-2.8-5.5-3.7c-2.2-0.9-4.8-1.4-7.6-1.4
			c-4.9,0-9.4,1.1-13.6,3.2c-4.2,2.1-8.1,5-11.9,8.5l-12.3-15.8c5.4-5,11.5-9,18.2-12c6.7-3,14-4.5,21.9-4.5
			c6.1,0,11.6,0.8,16.5,2.3c4.9,1.6,9.1,3.8,12.7,6.9c3.5,3,6.2,6.8,8.2,11.4c1.9,4.5,2.9,9.8,2.9,15.8c0,5-0.6,9.6-2,13.9
			c-1.3,4.2-3.3,8.4-5.8,12.5c-2.5,4.1-5.6,8.1-9.4,12.2c-3.7,4.1-7.9,8.3-12.7,12.8l-18,17.2h52.4v21.4H566.3L566.3,358.8z
			 M740.9,333.5v25.3h-22.7v-25.3h-57.7v-19.9l48.4-79h32v78.4h18.9v20.4H740.9L740.9,333.5z M718.5,257.1l-35.3,56h35.3V257.1z"/>
		<path class="st5" d="M564.5,358.8v-17.9l29.9-29.9l0,0c2.7-2.7,5.2-5.3,7.4-7.6c2.2-2.3,4.1-4.5,5.7-6.5c1.7-2,3.1-3.9,4.3-5.6
			c1.3-1.7,2.3-3.4,3.2-4.9v0c0.9-1.5,1.6-3,2.1-4.3c0.5-1.3,0.9-2.6,1.2-3.9l0,0c0.3-1.3,0.5-2.6,0.6-3.9c0.1-1.3,0.2-2.6,0.2-4
			c0-1.1-0.1-2.1-0.3-3.1c-0.2-1-0.4-2-0.8-3c-0.3-1-0.8-1.8-1.3-2.6c-0.5-0.8-1-1.5-1.7-2.2l0,0c-0.6-0.7-1.3-1.3-2.1-1.8h0
			c-0.8-0.6-1.7-1-2.7-1.5c-1-0.4-2.1-0.7-3.2-0.9v0c-1.1-0.2-2.4-0.3-3.7-0.3c-2.3,0-4.5,0.3-6.6,0.7c-2.1,0.5-4.2,1.2-6.1,2.2
			c-2,1-3.9,2.2-5.8,3.5c-1.9,1.4-3.8,2.9-5.6,4.6l-1.5,1.4l-14.5-18.7l1.2-1.1c2.8-2.6,5.7-4.9,8.8-7c3.1-2.1,6.4-3.9,9.9-5.4
			c3.5-1.6,7.1-2.7,10.9-3.5c3.8-0.8,7.7-1.2,11.7-1.2c3.1,0,6.1,0.2,8.9,0.6c2.9,0.4,5.6,1,8.1,1.8h0c2.6,0.8,5,1.8,7.2,3
			c2.2,1.2,4.3,2.6,6.1,4.2h0c1.9,1.6,3.5,3.4,5,5.5c1.4,2,2.7,4.2,3.7,6.6v0c1,2.4,1.8,5,2.3,7.7c0.5,2.8,0.8,5.7,0.8,8.7
			c0,2.6-0.2,5-0.5,7.4c-0.3,2.4-0.9,4.7-1.6,7v0c-0.7,2.2-1.5,4.4-2.5,6.5c-1,2.2-2.2,4.3-3.5,6.4c-1.3,2.1-2.7,4.1-4.3,6.2
			c-1.6,2.1-3.3,4.1-5.2,6.2c-1.9,2.1-3.9,4.2-6.1,6.4c-2.1,2.1-4.3,4.3-6.7,6.5l-14.7,14h49.6v25.1h-88V358.8L564.5,358.8z
			 M568.2,342.5V357h80.6v-17.7h-55.1c6.9-6.6,15-13.6,21.4-20.4c2.3-2.2,4.5-4.3,6.6-6.4c2.1-2.1,4.1-4.2,6-6.3l0,0
			c1.8-2,3.5-4,5-6c1.5-2,2.9-3.9,4.1-5.9c1.2-2,2.3-4,3.2-6c0.9-2,1.7-4,2.4-6.1c0.6-2,1.1-4.2,1.4-6.4c0.3-2.2,0.5-4.5,0.5-6.9
			c0-2.9-0.2-5.6-0.7-8.1c-0.5-2.5-1.1-4.8-2-7c-0.9-2.2-2-4.1-3.3-5.9c-1.3-1.8-2.7-3.4-4.4-4.8l0,0c-1.7-1.4-3.5-2.7-5.5-3.8
			c-2-1.1-4.2-2-6.5-2.7c-2.4-0.8-4.9-1.3-7.5-1.7c-2.7-0.4-5.5-0.6-8.4-0.6c-3.8,0-7.5,0.4-11,1.1c-3.5,0.7-6.9,1.8-10.2,3.3
			c-3.3,1.5-6.4,3.2-9.3,5.1c-2.5,1.6-4.9,3.5-7.1,5.5l10,12.9c1.5-1.3,3-2.5,4.5-3.6c2-1.5,4.1-2.7,6.3-3.8c2.2-1.1,4.5-2,6.9-2.5
			c2.4-0.6,4.9-0.8,7.5-0.8c1.5,0,3,0.1,4.4,0.4l0,0c1.4,0.2,2.7,0.6,3.9,1.1l0,0c1.2,0.5,2.4,1.1,3.4,1.8c1,0.7,1.9,1.5,2.7,2.3
			c0.8,0.9,1.5,1.8,2.2,2.8c0.6,1,1.1,2.1,1.6,3.3l0,0c0.4,1.2,0.7,2.4,0.9,3.6c0.2,1.2,0.3,2.5,0.3,3.7c0,1.4-0.1,2.9-0.2,4.4
			c-0.1,1.5-0.4,2.9-0.7,4.3v0c-0.3,1.4-0.8,2.9-1.4,4.5c-0.6,1.5-1.4,3.1-2.4,4.8c-0.9,1.6-2.1,3.4-3.4,5.2
			c-1.3,1.8-2.8,3.8-4.5,5.8l0,0c-1.7,2-3.6,4.2-5.9,6.6c-2.2,2.4-4.7,4.9-7.5,7.7v0L568.2,342.5L568.2,342.5z M742.7,335.4v25.3
			h-26.4v-25.3h-57.7v-22.2c16.4-26.8,32.8-53.6,49.2-80.4h34.8v78.4h18.9v24.1H742.7L742.7,335.4z M739,357l0-25.3h18.9v-16.8H739
			l0-78.4h-29.1l-47.6,77.7v17.5H720V357H739L739,357z M716.7,263.4l-30.1,47.8h30.1V263.4L716.7,263.4z M681.7,312.1l-1.8,2.8h40.5
			v-64.2L681.7,312.1z"/>
	</g>
	<rect x="668.2" y="428.8" class="st0" width="86.3" height="18.3"/>
</g>
</svg>
