<svg id="SvgjsSvg1008" xmlns="http://www.w3.org/2000/svg" version="1.1" xmlns:xlink="http://www.w3.org/1999/xlink" xmlns:svgjs="http://svgjs.com/svgjs" width="25" height="18"><defs id="SvgjsDefs1009"></defs><path id="SvgjsPath1010" d="M783 76.2857L804 76.2857C805.105 76.2857 806 77.1811 806 78.2857L806 91.4286C806 92.5331 805.105 93.4286 804 93.4286L783 93.4286C781.895 93.4286 781 92.5331 781 91.4286L781 78.2857C781 77.1811 781.895 76.2857 783 76.2857ZM783.746 83.1006L792.458 89.0473C792.86817 89.30153000000001 793.3564299999999 89.32323000000001 793.76906 89.14856C794.04485 89.16181 794.3274799999999 89.09579000000001 794.5799999999999 88.94200000000001L803.1959999999999 83.13210000000001C803.858 82.7288 804.0609999999999 81.87490000000001 803.651 81.22470000000001C803.241 80.57460000000002 802.372 80.37440000000001 801.7099999999999 80.77780000000001L793.5082899999999 86.30824000000001L785.2519999999998 80.67260000000002C784.5809999999998 80.25670000000002 783.6999999999998 80.46310000000001 783.2849999999999 81.13350000000001C782.8689999999998 81.80400000000002 783.0749999999998 82.68460000000002 783.7459999999999 83.10060000000001Z " fill="#ffffff" transform="matrix(1,0,0,1,-781,-76)"></path></svg>