<svg id="SvgjsSvg1000" xmlns="http://www.w3.org/2000/svg" version="1.1" xmlns:xlink="http://www.w3.org/1999/xlink" xmlns:svgjs="http://svgjs.com/svgjs" width="23" height="18"><defs id="SvgjsDefs1001"></defs><path id="SvgjsPath1007" d="M18 19L36.9999 19C38.104499999999994 19 39 19.8954 39 21C39 22.1045 38.1045 23 36.9999 23L17.999999999999996 23C16.895399999999995 23 15.999999999999996 22.1045 15.999999999999996 21C15.999999999999996 19.8954 16.895399999999995 19 17.999999999999996 19ZM18 26L36.9999 26C38.104499999999994 26 39 26.8954 39 28C39 29.1045 38.1045 30 36.9999 30L17.999999999999996 30C16.895399999999995 30 15.999999999999996 29.1045 15.999999999999996 28C15.999999999999996 26.8954 16.895399999999995 26 17.999999999999996 26ZM18 33L36.9999 33C38.104499999999994 33 39 33.8954 39 35C39 36.1045 38.1045 37 36.9999 37L17.999999999999996 37C16.895399999999995 37 15.999999999999996 36.1045 15.999999999999996 35C15.999999999999996 33.8954 16.895399999999995 33 17.999999999999996 33Z " fill="#8798de" transform="matrix(1,0,0,1,-16,-19)"></path></svg>